<?xml version="1.0" standalone="no"?>
<!DOCTYPE svg PUBLIC "-//W3C//DTD SVG 1.1//EN" "http://www.w3.org/Graphics/SVG/1.1/DTD/svg11.dtd" >
<svg xmlns="http://www.w3.org/2000/svg" xmlns:xlink="http://www.w3.org/1999/xlink" version="1.1">
<metadata>
Created by FontForge 20161013 at Tue Mar  1 03:00:58 2005
 By ,,,
(c) Typodermic, 2004. All rights reserved. Do not distribute. Report to piracy@typodermic.com
</metadata>
<defs>
<font id="Ligurino-Bold" horiz-adv-x="570" >
  <font-face 
    font-family="Ligurino"
    font-weight="700"
    font-stretch="normal"
    units-per-em="1000"
    panose-1="2 0 8 5 5 0 0 2 0 3"
    ascent="800"
    descent="-200"
    x-height="506"
    cap-height="703"
    bbox="-63 -185 976 942"
    underline-thickness="50"
    underline-position="-150"
    unicode-range="U+0020-FB01"
  />
<missing-glyph horiz-adv-x="449" 
 />
    <glyph glyph-name="fi" unicode="fi" horiz-adv-x="519" 
d="M468 0h-127v390h-129v-390h-126v390h-62v116h62v45q0 50 20 86t51.5 59t71 33.5t77.5 10.5q12 0 34.5 -1.5t47.5 -4t48 -6t36 -7.5l-24 -120q-12 3 -32.5 5.5t-42 4.5t-40 3t-27.5 1q-13 0 -29 -3.5t-30.5 -10.5t-24.5 -19t-10 -28v-48h256v-506z" />
    <glyph glyph-name=".notdef" horiz-adv-x="449" 
 />
    <glyph glyph-name=".null" horiz-adv-x="0" 
 />
    <glyph glyph-name="nonmarkingreturn" horiz-adv-x="449" 
 />
    <glyph glyph-name="space" unicode=" " horiz-adv-x="231" 
 />
    <glyph glyph-name="exclam" unicode="!" horiz-adv-x="208" 
d="M183 703l-36 -517h-86l-37 517h159zM103 119q27 0 46 -19t19 -46q0 -29 -19 -47.5t-46 -18.5q-29 0 -47.5 18.5t-18.5 47.5q0 27 18.5 46t47.5 19z" />
    <glyph glyph-name="quotedbl" unicode="&#x22;" horiz-adv-x="298" 
d="M34 706h99v-125l-14 -145h-72l-13 145v125zM165 706h97v-125l-11 -145h-74l-12 145v125z" />
    <glyph glyph-name="numbersign" unicode="#" horiz-adv-x="617" 
d="M551 679l-43 -149h81v-111h-110l-27 -99h102v-111h-130l-44 -170l-107 28l39 142h-92l-46 -170l-105 28l39 142h-82v111h111l26 99h-101v111h130l49 177l106 -28l-43 -149h93l48 177zM248 320h93l27 99h-93z" />
    <glyph glyph-name="dollar" unicode="$" horiz-adv-x="379" 
d="M138 703h107v-92q21 -3 41.5 -9.5t39.5 -14.5l-6 -130q-38 23 -73 32t-62 9q-9 0 -18 -7.5t-9 -16.5q0 -14 15 -25.5t38 -23t49.5 -25t49.5 -32.5q45 -39 45 -118q0 -54 -32.5 -93.5t-77.5 -56.5v-100h-107v90q-34 3 -62.5 9t-53.5 14l6 139q19 -10 40 -17.5t41.5 -12.5
t38.5 -7.5t32 -2.5q19 0 33.5 11.5t14.5 30.5t-19 32t-44 24q-23 9 -46.5 22t-42 32.5t-30.5 46t-12 63.5q0 54 31 87.5t73 45.5v96z" />
    <glyph glyph-name="percent" unicode="%" horiz-adv-x="656" 
d="M58 0l435 718h115l-435 -718h-115zM183 718q40 0 68.5 -11.5t45.5 -33t25 -51.5t8 -67q0 -36 -8 -66.5t-25 -52t-45.5 -34t-68.5 -12.5q-41 0 -69.5 12.5t-45.5 34t-24.5 52t-7.5 66.5q0 37 7.5 67t24.5 51.5t45.5 33t69.5 11.5zM470 315q40 0 68.5 -11.5t45.5 -33
t25 -51.5t8 -67q0 -36 -8 -66t-25 -52t-45.5 -34t-68.5 -12q-41 0 -69.5 12t-45.5 34t-24.5 52t-7.5 66q0 37 7.5 67t24.5 51.5t45.5 33t69.5 11.5zM183 629q-30 0 -43 -21t-13 -53q0 -33 12.5 -54.5t43.5 -21.5q32 0 45 21.5t13 54.5q0 32 -13 53t-45 21zM470 227
q-31 0 -44 -21t-13 -54t13 -55t44 -22q32 0 45 22t13 55q0 32 -13 53.5t-45 21.5z" />
    <glyph glyph-name="ampersand" unicode="&#x26;" horiz-adv-x="675" 
d="M281 715q66 0 103.5 -40t37.5 -105q0 -30 -7.5 -54.5t-20 -46t-29 -40t-35.5 -35.5q29 -38 68.5 -78.5t76.5 -73.5q10 20 17.5 45.5t15.5 54.5l126 -23q-13 -51 -27.5 -91t-31.5 -69q20 -16 41 -31.5t35 -23.5l-86 -116q-18 13 -41 31t-44 36q-44 -31 -98 -49.5
t-121 -18.5q-45 0 -84 16t-68 44t-45.5 66.5t-16.5 83.5q0 39 10.5 72t28 61.5t40.5 52.5t49 45q-18 29 -29.5 61.5t-11.5 68.5q0 73 41 115t106 42zM258 111q38 0 71 8t61 22q-45 43 -82.5 89t-75.5 100q-23 -22 -41 -52t-18 -66q0 -51 23 -76t62 -25zM255 567
q0 -19 4 -42.5t12 -37.5q16 14 27.5 35.5t11.5 41.5q0 13 -5.5 26.5t-19.5 13.5q-17 0 -23.5 -11t-6.5 -26z" />
    <glyph glyph-name="quotesingle" unicode="'" horiz-adv-x="152" 
d="M27 706h99v-125l-13 -145h-73l-13 145v125z" />
    <glyph glyph-name="parenleft" unicode="(" horiz-adv-x="340" 
d="M315 -137q-85 0 -141.5 35.5t-90.5 96t-48 141t-14 170.5q0 91 14 175.5t48 149.5t90.5 103.5t141.5 38.5v-108q-48 0 -82.5 -30.5t-56.5 -80.5t-32.5 -114.5t-10.5 -133.5q0 -71 10.5 -132.5t33 -106.5t57 -70.5t81.5 -25.5v-108z" />
    <glyph glyph-name="parenright" unicode=")" horiz-adv-x="340" 
d="M25 773q85 0 141.5 -36t90.5 -96.5t48 -141t14 -169.5q0 -91 -14 -175.5t-48 -149t-90.5 -103.5t-141.5 -39v108q48 0 82 29t56 78t32.5 114.5t10.5 137.5q0 69 -10.5 130t-32 106.5t-56 72t-82.5 26.5v108z" />
    <glyph glyph-name="asterisk" unicode="*" horiz-adv-x="373" 
d="M247 706l-14 -100l90 43l36 -117l-96 -14l67 -71l-100 -71l-44 86l-48 -86l-97 74l69 67l-96 19l37 115l88 -44l-12 99h120z" />
    <glyph glyph-name="plus" unicode="+" horiz-adv-x="456" 
d="M285 192v-177h-109v177h-163v110h163v175h109v-175h157v-110h-157z" />
    <glyph glyph-name="comma" unicode="," horiz-adv-x="171" 
d="M90 119q27 0 46 -19t19 -46q0 -21 -4 -41t-14.5 -40.5t-27.5 -41.5t-44 -45l-42 42q12 21 20 39t8 29q0 3 -2.5 6.5t-4.5 5.5q-8 9 -13.5 21t-5.5 29q0 23 17 42t48 19z" />
    <glyph glyph-name="hyphen" unicode="-" horiz-adv-x="352" 
d="M313 199h-275v99h275v-99z" />
    <glyph glyph-name="period" unicode="." horiz-adv-x="179" 
d="M89 119q27 0 46 -19t19 -46q0 -29 -19 -47.5t-46 -18.5q-28 0 -46.5 18.5t-18.5 47.5q0 27 18.5 46t46.5 19z" />
    <glyph glyph-name="slash" unicode="/" horiz-adv-x="425" 
d="M317 706h109l-317 -705h-109z" />
    <glyph glyph-name="zero" unicode="0" 
d="M284 -12q-66 0 -111.5 26t-74 73.5t-41 114.5t-12.5 149t13 149.5t41.5 115t74 73.5t110.5 26t110.5 -24.5t74.5 -71t42 -114t13 -154.5q0 -83 -13 -150.5t-41.5 -114.5t-74 -72.5t-111.5 -25.5zM284 117q27 0 47 16.5t33 47.5t19.5 74t6.5 96q0 54 -6.5 97t-19.5 74
t-33 47.5t-47 16.5t-47 -16.5t-33 -47.5t-19 -74t-6 -97q0 -110 25.5 -172t79.5 -62z" />
    <glyph glyph-name="one" unicode="1" 
d="M95 129h134v404q-25 -13 -51 -27t-45 -24l-58 116l196 105h88v-574h125v-129h-389v129z" />
    <glyph glyph-name="two" unicode="2" 
d="M299 715q38 0 74.5 -11t65 -35t45.5 -61.5t17 -89.5q-1 -75 -36.5 -143t-92.5 -133q-52 -58 -122 -113h264v-129h-459v113l22 22t40 39t49 47.5t49.5 48t40.5 39.5t22 23q38 45 65 92t27 94q0 39 -18 53.5t-53 14.5q-43 0 -97 -17.5t-102 -44.5l-13 141q35 20 91 35
t121 15z" />
    <glyph glyph-name="three" unicode="3" 
d="M271 715q55 0 94 -15.5t64 -43t36.5 -67t11.5 -87.5q0 -18 -4 -37t-11.5 -36.5t-19 -32t-26.5 -23.5q16 -7 31 -22.5t27 -36t19 -44.5t7 -49q0 -109 -54 -170.5t-175 -61.5q-26 0 -49.5 1.5t-47.5 6.5t-50 14t-56 24l6 143q58 -32 108.5 -46.5t88.5 -14.5q51 0 75 24.5
t24 79.5q0 49 -26 65.5t-80 16.5h-91v123h88q23 0 40 2t27.5 10t15.5 23t5 41q0 50 -21.5 67t-62.5 17q-31 0 -72 -17t-87 -44v147q34 19 76.5 31t88.5 12z" />
    <glyph glyph-name="four" unicode="4" 
d="M48 221l323 482h88v-437h62v-130h-62v-136h-129v136h-282v85zM330 266v154l-105 -154h105z" />
    <glyph glyph-name="five" unicode="5" 
d="M464 574h-240l-5 -110q14 2 30 3t32 1q61 0 103.5 -13.5t69 -42t38.5 -72t12 -103.5q0 -115 -56.5 -181.5t-174.5 -66.5q-51 0 -100.5 8.5t-108.5 37.5l16 144q55 -29 105 -44t88 -15q55 0 77.5 28.5t22.5 88.5q0 28 -4 47t-14.5 31t-28.5 17.5t-45 5.5q-42 0 -86.5 -7.5
t-110.5 -26.5l19 399h361v-129z" />
    <glyph glyph-name="six" unicode="6" 
d="M307 469q51 0 91.5 -17.5t69 -48.5t44 -73.5t15.5 -92.5q0 -55 -18.5 -101t-51.5 -79t-79.5 -51t-103.5 -18q-54 0 -96.5 20t-72.5 58.5t-46 93.5t-16 124q0 106 23.5 186.5t66 135t103 82t134.5 27.5q29 0 58 -5.5t49 -11.5v-132q-28 8 -57 14t-59 6q-57 0 -96.5 -36.5
t-62.5 -102.5q23 11 48.5 16.5t56.5 5.5zM186 228q0 -23 7.5 -43t21 -35t32 -24t40.5 -9t40.5 9t32 24.5t21 35.5t7.5 42q0 23 -8 43t-22 35t-32.5 24t-38.5 9q-21 0 -39.5 -9.5t-32 -25t-21.5 -35.5t-8 -41z" />
    <glyph glyph-name="seven" unicode="7" 
d="M77 703h430l-269 -703h-142l227 574h-246v129z" />
    <glyph glyph-name="eight" unicode="8" 
d="M285 715q42 0 77.5 -11t61.5 -32t40.5 -52.5t14.5 -72.5q0 -61 -23.5 -103.5t-60.5 -64.5q23 -14 44 -32.5t36.5 -41t25 -50t9.5 -59.5q0 -47 -18.5 -85t-50 -65.5t-72 -42.5t-84.5 -15t-84.5 15t-72 42.5t-50 65.5t-18.5 85q0 31 9.5 59.5t25 53t35.5 43.5t41 33
q-34 29 -56 66t-22 96q0 41 14 72.5t39.5 52.5t61 32t77.5 11zM192 203q0 -41 25.5 -63.5t63.5 -22.5q40 0 65.5 24t25.5 62q0 18 -8 35t-20.5 31.5t-29 27t-33.5 21.5q-35 -20 -62 -49t-27 -66zM290 603q-38 0 -56 -20.5t-18 -48.5q0 -15 6.5 -29.5t17 -28t23 -24
t25.5 -17.5q32 19 52 44t20 55q0 26 -18.5 47.5t-51.5 21.5z" />
    <glyph glyph-name="nine" unicode="9" 
d="M271 234q-49 0 -91 18.5t-72.5 51.5t-47.5 77.5t-17 95.5q0 55 18.5 99.5t52 75t80 47t101.5 16.5q109 0 170.5 -72.5t61.5 -213.5q0 -104 -19.5 -186t-57.5 -138.5t-94.5 -86.5t-130.5 -30q-30 0 -61.5 5t-51.5 12l11 132q26 -8 53 -14t56 -6q57 0 89 36.5t49 102.5
q-20 -11 -44 -16.5t-55 -5.5zM383 476q0 23 -8.5 43t-22.5 35t-32.5 23.5t-37.5 8.5q-20 0 -38.5 -8.5t-32 -23.5t-21.5 -35t-8 -43t7.5 -43t21 -35t32 -24t39.5 -9t39.5 8.5t32 23.5t21.5 35.5t8 43.5z" />
    <glyph glyph-name="colon" unicode=":" horiz-adv-x="187" 
d="M93 119q27 0 46 -19t19 -46q0 -29 -19 -47.5t-46 -18.5q-29 0 -47.5 18.5t-18.5 47.5q0 27 18.5 46t47.5 19zM93 440q27 0 46 -18.5t19 -46.5q0 -27 -19 -46t-46 -19q-29 0 -47.5 19t-18.5 46q0 28 18.5 46.5t47.5 18.5z" />
    <glyph glyph-name="semicolon" unicode=";" horiz-adv-x="172" 
d="M88 119q27 0 46 -19t19 -46q0 -21 -4 -41t-14 -40.5t-27.5 -41.5t-43.5 -45l-43 42q14 21 21 39t7 29q0 4 -4 10l-9 13.5t-9 17t-4 21.5q0 23 17 42t48 19zM88 440q27 0 46 -18.5t19 -46.5q0 -27 -19 -46t-46 -19q-28 0 -46.5 19t-18.5 46q0 28 18.5 46.5t46.5 18.5z" />
    <glyph glyph-name="less" unicode="&#x3c;" horiz-adv-x="320" 
d="M294 45l-289 164v73l289 165v-114l-161 -87l161 -88v-113z" />
    <glyph glyph-name="equal" unicode="=" horiz-adv-x="510" 
d="M43 410h450v-102h-450v102zM43 197h450v-102h-450v102z" />
    <glyph glyph-name="greater" unicode="&#x3e;" horiz-adv-x="332" 
d="M38 446l289 -164v-73l-289 -165v114l162 87l-162 88v113z" />
    <glyph glyph-name="question" unicode="?" horiz-adv-x="432" 
d="M195 586q-65 0 -165 -44v144q44 15 85 22t80 7q45 0 84.5 -14t68.5 -40t45.5 -63.5t16.5 -83.5q0 -30 -4.5 -54.5t-16 -46.5t-29.5 -43t-45 -43q-20 -17 -36.5 -30t-28.5 -28.5t-19.5 -35t-8.5 -47.5h-112q1 59 12 91t31 55q16 19 37.5 40t41 43.5t33.5 46t14 46.5
q0 78 -84 78zM162 119q27 0 46 -19t19 -46q0 -29 -19 -47.5t-46 -18.5q-29 0 -47.5 18.5t-18.5 47.5q0 27 18.5 46t47.5 19z" />
    <glyph glyph-name="at" unicode="@" horiz-adv-x="685" 
d="M483 530v-221q0 -5 4.5 -11.5t14.5 -6.5q8 0 16.5 7t15 22t11 39t4.5 58q0 105 -51.5 151t-150.5 46q-49 0 -87 -21.5t-63.5 -58t-39 -84.5t-13.5 -100q0 -78 19.5 -128.5t52.5 -79.5t76 -40.5t91 -11.5q30 0 59 7.5t55 19.5t47 25.5t35 25.5l58 -91q-102 -90 -251 -90
q-67 0 -130 16.5t-112 58t-78.5 111.5t-29.5 177q0 74 21.5 140.5t61.5 117t98 80.5t130 30q76 0 132.5 -22t93.5 -62t55.5 -97t18.5 -127q0 -38 -12 -75.5t-31.5 -66.5t-45 -47t-51.5 -18q-29 0 -44.5 10t-23.5 24q-13 -23 -35.5 -37.5t-51.5 -14.5q-39 0 -66 15.5
t-43 40.5t-23 56t-7 61q0 29 6 59t22 54t42.5 39.5t68.5 15.5q24 0 39.5 -7.5t34.5 -24.5q2 24 6 36h51zM361 275q16 0 24.5 5.5t12 12.5t3.5 14v11v69q-3 23 -14 38t-35 15q-29 0 -38.5 -21t-9.5 -59q0 -41 12.5 -63t44.5 -22z" />
    <glyph glyph-name="A" unicode="A" horiz-adv-x="684" 
d="M469 158h-257l-51 -158h-142l240 703h169l236 -703h-146zM426 290l-86 250l-86 -250h172z" />
    <glyph glyph-name="B" unicode="B" horiz-adv-x="548" 
d="M53 699q22 1 48.5 1.5t55 1l57 1t52.5 0.5q115 0 168.5 -47.5t53.5 -135.5q0 -48 -20 -89t-59 -65q18 -10 35 -25t30.5 -35.5t21.5 -46.5t8 -57q0 -44 -14 -82t-41.5 -65.5t-68.5 -43t-95 -15.5q-18 0 -44.5 0.5t-57.5 1t-64.5 1.5t-65.5 2v698zM182 305v-178
q24 -2 50 -2h55q48 0 67.5 19.5t19.5 66.5t-24.5 70.5t-70.5 23.5h-97zM273 415q40 0 62 24t22 69q0 39 -18 52.5t-68 13.5h-25t-19 -0.5t-19.5 -1t-25.5 -1.5v-156h91z" />
    <glyph glyph-name="C" unicode="C" horiz-adv-x="628" 
d="M373 715q21 0 49 -2.5t57 -7.5t57.5 -12.5t50.5 -17.5l-41 -129q-20 12 -44 20t-48 13t-45.5 7.5t-35.5 2.5q-37 0 -72 -11.5t-62.5 -39.5t-44.5 -73.5t-17 -113.5q0 -67 17 -112.5t45 -73.5t63 -40t71 -12q13 0 34.5 3.5t45.5 9.5t47.5 14.5t41.5 19.5l45 -131
q-22 -10 -50.5 -17.5t-57.5 -13t-57 -8t-49 -2.5q-74 0 -134.5 22.5t-103 68t-66 113.5t-23.5 159q0 90 23 158t65.5 114t103 69t135.5 23z" />
    <glyph glyph-name="D" unicode="D" horiz-adv-x="666" 
d="M292 709q73 0 132.5 -21.5t101 -65.5t64 -111.5t22.5 -159.5q0 -177 -84.5 -267t-236.5 -90q-18 0 -46.5 0.5t-60.5 1t-66.5 2t-64.5 4.5v695q58 6 119.5 8.5t119.5 3.5zM271 580q-21 0 -44 -1.5t-45 -3.5v-449q26 -2 53.5 -2.5t56.5 -0.5q37 0 70.5 11t59.5 37.5
t41.5 70.5t15.5 109q0 66 -16 110.5t-43.5 70.5t-65.5 37t-83 11z" />
    <glyph glyph-name="E" unicode="E" horiz-adv-x="457" 
d="M425 703v-129h-246v-137h223v-131h-223v-177h247v-129h-377v703h376z" />
    <glyph glyph-name="F" unicode="F" horiz-adv-x="434" 
d="M419 703v-129h-239v-150h209v-130h-209v-294h-132v703h371z" />
    <glyph glyph-name="G" unicode="G" horiz-adv-x="661" 
d="M375 715q21 0 49 -2.5t57.5 -7.5t58 -12.5t50.5 -17.5l-45 -129q-18 12 -42 20t-47.5 13t-45 7.5t-35.5 2.5q-36 0 -71 -12.5t-62.5 -40.5t-45 -73.5t-17.5 -111.5q0 -67 16.5 -112.5t44 -73.5t62.5 -40t73 -12q20 0 49 3.5t55 9.5v136h-103v129h232v-362
q-33 -11 -66 -19t-63.5 -13t-57.5 -7t-46 -2q-74 0 -134.5 22.5t-103 68t-66 113.5t-23.5 159q0 89 23 157t66 114t103 69.5t135 23.5z" />
    <glyph glyph-name="H" unicode="H" horiz-adv-x="592" 
d="M174 703v-274h245v274h130v-703h-130v298h-245v-298h-130v703h130z" />
    <glyph glyph-name="I" unicode="I" horiz-adv-x="207" 
d="M168 703v-703h-132v703h132z" />
    <glyph glyph-name="J" unicode="J" horiz-adv-x="324" 
d="M282 173q0 -40 -11 -74t-32.5 -58.5t-53 -38.5t-72.5 -14q-21 0 -51.5 6t-55.5 17l28 130q25 -13 45.5 -17.5t34.5 -4.5q22 0 30 9.5t8 41.5v533h130v-530z" />
    <glyph glyph-name="K" unicode="K" horiz-adv-x="605" 
d="M232 323h-45v-323h-131v703h131v-285h42l190 285h159l-232 -326l246 -377h-162z" />
    <glyph glyph-name="L" unicode="L" horiz-adv-x="440" 
d="M180 703v-574h246v-129h-377v703h131z" />
    <glyph glyph-name="M" unicode="M" horiz-adv-x="913" 
d="M720 0l-69 458l-127 -458h-133l-125 457l-68 -457h-143l128 703h140l129 -476l135 476h142l128 -703h-137z" />
    <glyph glyph-name="N" unicode="N" horiz-adv-x="601" 
d="M47 703h115l270 -445v445h123v-703h-115l-270 440v-440h-123v703z" />
    <glyph glyph-name="O" unicode="O" horiz-adv-x="754" 
d="M380 715q73 0 132 -23t100.5 -68.5t64 -114t22.5 -158.5q0 -91 -22 -159t-63 -113.5t-100 -68t-134 -22.5q-74 0 -134.5 22.5t-103 68t-65.5 113.5t-23 159q0 92 23 160.5t65.5 113.5t102.5 67.5t135 22.5zM380 589q-37 0 -72.5 -12t-63.5 -40t-45.5 -73.5t-17.5 -112.5
t17 -112.5t45 -73.5t64 -40t73 -12t72 13t61 41.5t42 74t16 109.5q0 68 -16 114t-42.5 73.5t-61 39t-71.5 11.5z" />
    <glyph glyph-name="P" unicode="P" horiz-adv-x="509" 
d="M265 703q58 0 100 -14.5t69.5 -40t40.5 -61.5t13 -79q0 -54 -17 -97t-47.5 -74t-74 -47.5t-97.5 -16.5h-70v-273h-130v699q22 1 49 1.5t55.5 1t56.5 1t52 0.5zM270 574h-25t-19 -0.5t-19 -1t-25 -1.5v-169h83q45 0 67.5 24.5t22.5 68.5q0 42 -18.5 60.5t-66.5 18.5z" />
    <glyph glyph-name="Q" unicode="Q" horiz-adv-x="748" 
d="M378 715q151 0 234.5 -93t83.5 -271q0 -89 -21.5 -156.5t-62.5 -112.5t-100 -68t-134 -23q-14 0 -27.5 1t-27.5 3l-24 -54h368v-111h-540l97 193q-84 43 -128.5 123t-44.5 205q0 181 86.5 272.5t240.5 91.5zM378 586q-36 0 -71 -12t-62.5 -39.5t-44.5 -72.5t-17 -111
t16.5 -111t43.5 -72t62 -39t73 -12q35 0 68.5 12t59.5 39t42 72t16 111q0 67 -15.5 112t-41.5 72.5t-59.5 39t-69.5 11.5z" />
    <glyph glyph-name="R" unicode="R" horiz-adv-x="548" 
d="M202 301h-24v-301h-131v699q46 2 99.5 3t104.5 1q58 0 99 -12.5t67.5 -36t38.5 -57.5t12 -77q0 -78 -37.5 -130.5t-100.5 -74.5l197 -315h-158zM258 419q41 0 59 22.5t18 66.5q0 20 -3.5 32.5t-12.5 20t-24.5 10.5t-39.5 3h-23t-15.5 -0.5t-15.5 -1t-23 -1.5v-152h80z
" />
    <glyph glyph-name="S" unicode="S" horiz-adv-x="510" 
d="M252 715q50 0 99 -7.5t86 -21.5l-9 -139q-54 20 -100.5 29.5t-86.5 9.5q-26 0 -40.5 -13t-14.5 -39q0 -18 8.5 -32t22 -25.5t31.5 -22t38 -20.5q31 -17 64 -37t60 -48t44 -65.5t17 -87.5q0 -47 -19 -85t-51 -65.5t-73.5 -42.5t-85.5 -15q-69 0 -118 9.5t-84 18.5l10 151
q20 -12 44.5 -21t50.5 -15.5t51 -10t46 -3.5q38 0 65.5 24t27.5 62q0 21 -9 37t-24 28.5t-34.5 23.5t-40.5 22q-30 16 -61 34.5t-55.5 44t-40.5 60t-16 81.5q0 44 17 77.5t44.5 56.5t63 35t73.5 12z" />
    <glyph glyph-name="T" unicode="T" horiz-adv-x="502" 
d="M475 703v-129h-159v-574h-131v574h-158v129h448z" />
    <glyph glyph-name="U" unicode="U" horiz-adv-x="597" 
d="M183 703v-477q0 -59 29 -84t86 -25t86.5 25.5t29.5 83.5v477h131v-492q0 -54 -20 -96t-53.5 -70t-78.5 -42.5t-95 -14.5q-48 0 -92.5 14t-78.5 41.5t-54.5 69.5t-20.5 98v492h131z" />
    <glyph glyph-name="V" unicode="V" horiz-adv-x="684" 
d="M343 148l180 555h142l-240 -703h-169l-236 703h145z" />
    <glyph glyph-name="W" unicode="W" horiz-adv-x="887" 
d="M855 703l-164 -703h-143l-108 461l-104 -461h-140l-164 703h143l96 -461l107 461h134l108 -460l98 460h137z" />
    <glyph glyph-name="X" unicode="X" horiz-adv-x="652" 
d="M25 0l228 355l-218 348h162l131 -235l125 235h165l-218 -344l227 -359h-164l-140 244l-135 -244h-163z" />
    <glyph glyph-name="Y" unicode="Y" horiz-adv-x="599" 
d="M300 422l139 281h153l-226 -422v-281h-131v280l-229 423h157z" />
    <glyph glyph-name="Z" unicode="Z" horiz-adv-x="544" 
d="M80 703h436l-283 -570h260v-133h-465l280 568h-228v135z" />
    <glyph glyph-name="bracketleft" unicode="[" horiz-adv-x="277" 
d="M36 776h228v-108h-118v-696h118v-109h-228v913z" />
    <glyph glyph-name="backslash" unicode="\" horiz-adv-x="425" 
d="M425 1h-109l-317 705h109z" />
    <glyph glyph-name="bracketright" unicode="]" horiz-adv-x="286" 
d="M256 -137h-228v108h118v696h-118v109h228v-913z" />
    <glyph glyph-name="asciicircum" unicode="^" horiz-adv-x="453" 
d="M225 527l-99 -227h-115l184 406h58l189 -406h-120z" />
    <glyph glyph-name="underscore" unicode="_" horiz-adv-x="561" 
d="M571 -146h-581v121h581v-121z" />
    <glyph glyph-name="grave" unicode="`" horiz-adv-x="242" 
d="M77 745l161 -133l-57 -65l-181 106z" />
    <glyph glyph-name="a" unicode="a" horiz-adv-x="462" 
d="M233 513q88 0 135 -47.5t47 -141.5v-324h-85q-9 12 -9 39q-25 -27 -57.5 -38.5t-76.5 -11.5q-33 0 -61 12t-48.5 33t-32 48.5t-11.5 57.5q0 48 22 82t58.5 56t85 33t101.5 14q-1 13 -7 25t-14 20.5t-18 13.5t-20 5q-11 0 -25.5 -1.5t-33 -7t-41.5 -15.5t-52 -27l-42 121
q25 17 50.5 27.5t50 16.5t46 8t38.5 2zM299 231q-23 -2 -49 -8.5t-47.5 -17.5t-35.5 -26t-14 -34q0 -26 12.5 -34t32.5 -8q35 0 61 10.5t40 27.5v90z" />
    <glyph glyph-name="b" unicode="b" horiz-adv-x="477" 
d="M175 470q17 21 44 32t62 11q37 0 68.5 -16t54.5 -46t36 -74t13 -101q0 -52 -12.5 -103.5t-39 -92t-68 -66t-100.5 -25.5q-37 0 -87 7t-96 18v718h125v-262zM259 394q-35 0 -55 -12t-31 -32v-236q27 -6 68 -6q16 0 33 11.5t31 32.5t22.5 51.5t8.5 69.5q0 65 -23 93t-54 28
z" />
    <glyph glyph-name="c" unicode="c" horiz-adv-x="447" 
d="M253 513q13 0 32.5 -1.5t40.5 -4.5t41 -7.5t36 -10.5l-43 -124q-12 6 -27.5 10.5t-30.5 8t-28 5t-21 1.5q-56 0 -77.5 -38.5t-21.5 -99.5q0 -29 4 -54.5t15.5 -44t30.5 -29.5t49 -11q10 0 25.5 2.5t32 7t33 11.5t28.5 15l47 -123q-17 -8 -39 -14.5t-45.5 -11t-45 -7
t-36.5 -2.5q-63 0 -106 19.5t-69.5 54.5t-38 83t-11.5 104q0 58 12 106t38.5 82.5t69.5 53.5t105 19z" />
    <glyph glyph-name="d" unicode="d" horiz-adv-x="484" 
d="M427 100q0 -22 4 -47t12 -53h-104q-5 9 -7 19t-2 24q-22 -31 -45.5 -42.5t-55.5 -11.5q-54 0 -92.5 20.5t-63 55.5t-36.5 83t-12 104q0 59 11 107t34.5 82.5t59 53t83.5 18.5q35 0 54.5 -5.5t33.5 -16.5v241h126v-632zM241 393q-29 0 -48 -10.5t-30 -29t-15.5 -44.5
t-4.5 -57q0 -27 4 -53t13.5 -46t26 -32t42.5 -12q33 0 50 16t22 48v210q-27 10 -60 10z" />
    <glyph glyph-name="e" unicode="e" horiz-adv-x="459" 
d="M229 513q57 0 95 -21.5t61 -55.5t32.5 -76.5t9.5 -83.5v-49h-274q3 -19 7.5 -39t14 -36.5t24 -27t36.5 -10.5q15 0 34 4.5t39.5 12.5t40.5 19t38 25l39 -111q-27 -21 -49 -35.5t-44 -22.5t-47 -11.5t-56 -3.5q-54 0 -92.5 22t-63 58.5t-35.5 83.5t-11 97q0 52 10 99
t33.5 83t62 57.5t95.5 21.5zM228 396q-33 0 -50 -23t-22 -51h144q-5 28 -21.5 51t-50.5 23z" />
    <glyph glyph-name="f" unicode="f" horiz-adv-x="334" 
d="M316 399h-108v-399h-125v399h-63v107h63v45q0 50 13 85.5t36 58.5t54.5 34t69.5 11q19 0 48 -6t52 -15l-25 -122q-17 8 -39.5 13t-35.5 5q-26 0 -37 -11.5t-11 -49.5v-48h108v-107z" />
    <glyph glyph-name="g" unicode="g" horiz-adv-x="505" 
d="M469 399h-46q4 -12 6.5 -29t2.5 -31q0 -84 -51 -126.5t-141 -42.5q-4 0 -14.5 1t-22.5 3t-23.5 5t-17.5 7q-3 -5 -3 -13q0 -13 7.5 -26t26.5 -13h97q79 0 124 -33.5t45 -105.5q0 -37 -15.5 -67.5t-43.5 -52t-67 -33.5t-85 -12q-54 0 -93 11.5t-64 32.5t-37 49.5t-12 62.5
q0 30 13.5 55t48.5 38q-19 14 -27 33.5t-8 43.5q0 20 8 37.5t24 28.5q-16 20 -31.5 52t-15.5 65q0 42 15 74t41.5 54.5t61.5 34t76 11.5q17 0 31.5 -1t28.5 -6h161v-107zM248 413q-36 0 -53 -19t-17 -54q0 -71 70 -71q65 0 65 71q0 35 -16.5 54t-48.5 19zM182 35
q-10 -5 -16 -15t-6 -29q0 -29 19.5 -39t63.5 -10t68 10.5t24 38.5q0 23 -11.5 33.5t-39.5 10.5h-102z" />
    <glyph glyph-name="h" unicode="h" horiz-adv-x="488" 
d="M311 0v290q0 55 -15 79t-45 24q-32 0 -49.5 -11.5t-27.5 -31.5v-350h-125v732h125v-260q16 17 44 29t66 12q70 0 111 -55t41 -173v-285h-125z" />
    <glyph glyph-name="i" unicode="i" horiz-adv-x="199" 
d="M162 0h-127v506h127v-506zM100 686q27 0 46 -19.5t19 -46.5q0 -28 -19 -46.5t-46 -18.5q-28 0 -47 18.5t-19 46.5q0 27 19 46.5t47 19.5z" />
    <glyph glyph-name="j" unicode="j" horiz-adv-x="242" 
d="M196 4q0 -38 -10.5 -70t-30.5 -55t-49 -36t-67 -13q-19 0 -49 6t-53 15l25 123q18 -8 41 -13t36 -5q20 0 26 9t6 36v505h125v-502zM133 686q28 0 47 -19.5t19 -46.5q0 -28 -19 -46.5t-47 -18.5t-46.5 18.5t-18.5 46.5q0 27 18.5 46.5t46.5 19.5z" />
    <glyph glyph-name="k" unicode="k" horiz-adv-x="478" 
d="M205 214h-29v-214h-125v732h125v-391h29l122 165h159l-185 -225l185 -281h-156z" />
    <glyph glyph-name="l" unicode="l" horiz-adv-x="202" 
d="M36 0v732h126v-732h-126z" />
    <glyph glyph-name="m" unicode="m" horiz-adv-x="735" 
d="M522 513q79 0 116.5 -55t37.5 -173v-285h-127v290q0 55 -10 79t-41 24q-27 0 -42.5 -15.5t-24.5 -44.5v-333h-125v290q0 57 -11 80t-41 23q-28 0 -43 -10.5t-25 -33.5v-349h-125v506h114v-35q16 20 40.5 31t62.5 11q40 0 67.5 -15.5t44.5 -43.5q18 26 51 42.5t81 16.5z
" />
    <glyph glyph-name="n" unicode="n" horiz-adv-x="502" 
d="M323 0v290q0 55 -16 79t-48 24q-33 0 -53 -12.5t-31 -32.5v-348h-125v506h114v-37q19 20 55.5 32t79.5 12q80 0 115 -55.5t35 -172.5v-285h-126z" />
    <glyph glyph-name="o" unicode="o" horiz-adv-x="512" 
d="M256 513q61 0 104 -19t70 -53t39 -82.5t12 -106.5q0 -56 -12 -104t-39 -83t-70 -54.5t-104 -19.5q-62 0 -105 19.5t-69.5 54.5t-38.5 82.5t-12 104.5q0 59 12 107t38.5 82.5t69.5 53t105 18.5zM256 391q-54 0 -76.5 -37t-22.5 -102q0 -30 5 -55.5t16 -44t30 -29t48 -10.5
t48 10.5t30.5 29t16.5 44t5 55.5q0 61 -22 100t-78 39z" />
    <glyph glyph-name="p" unicode="p" horiz-adv-x="488" 
d="M58 404q0 53 -20 102h105q5 -8 10 -23.5t5 -17.5q11 22 41 35t75 13q47 0 82 -20.5t58 -56t34.5 -83.5t11.5 -103q0 -57 -11.5 -105.5t-35.5 -83t-61 -54t-89 -19.5q-57 0 -81 23v-181h-124v574zM242 109q30 0 49 11t30.5 30t15.5 45t4 55q0 28 -4 54t-13.5 46t-26.5 32
t-42 12q-65 0 -74 -65v-210q15 -5 30 -7.5t31 -2.5z" />
    <glyph glyph-name="q" unicode="q" horiz-adv-x="479" 
d="M303 32q-14 -17 -43.5 -30t-68.5 -13q-34 0 -64.5 15.5t-53 45.5t-35.5 74.5t-13 102.5q0 51 12 102.5t38.5 92t68.5 66t101 25.5q37 0 87.5 -6.5t96.5 -17.5v-659h-126v202zM224 110q35 0 55 12t30 32v234q-13 2 -29.5 3.5t-37.5 1.5q-17 0 -33.5 -11t-30 -32t-22 -51.5
t-8.5 -68.5q0 -63 20.5 -91.5t55.5 -28.5z" />
    <glyph glyph-name="r" unicode="r" horiz-adv-x="340" 
d="M269 513q25 0 57 -8v-142q-15 8 -33 12t-41 4q-19 0 -34.5 -13t-26 -33.5t-16 -45.5t-5.5 -49v-238h-126v506h114v-51q17 26 48 42t63 16z" />
    <glyph glyph-name="s" unicode="s" horiz-adv-x="405" 
d="M338 355q-33 18 -68.5 29.5t-63.5 11.5q-41 0 -41 -23q0 -15 16.5 -26t41 -23t53 -27t51.5 -37q20 -20 32 -46.5t12 -63.5q0 -36 -15 -66t-39.5 -51t-56 -33t-64.5 -12q-49 0 -90.5 8.5t-67.5 19.5l6 133q19 -10 40.5 -17.5t41.5 -13t38.5 -8t31.5 -2.5q21 0 34.5 13.5
t13.5 31.5q0 16 -16 27.5t-39.5 23t-50.5 25.5t-49 35q-20 20 -32.5 45.5t-12.5 63.5q0 69 44.5 104.5t117.5 35.5q29 0 66.5 -7t65.5 -19v-132z" />
    <glyph glyph-name="t" unicode="t" horiz-adv-x="361" 
d="M297 399h-92v-231q0 -33 9.5 -44t25.5 -11t37.5 5t40.5 14l24 -122q-23 -10 -50.5 -16t-47.5 -6q-76 0 -120 43.5t-44 139.5v228h-63v107h63v114l125 32v-146h92v-107z" />
    <glyph glyph-name="u" unicode="u" horiz-adv-x="483" 
d="M172 506v-289q0 -57 15 -80.5t45 -23.5q31 0 48.5 11.5t27.5 30.5v351h125v-506h-121v35q-15 -15 -42.5 -28.5t-71.5 -13.5q-70 0 -111 48t-41 155v310h126z" />
    <glyph glyph-name="v" unicode="v" horiz-adv-x="463" 
d="M233 147l83 359h133l-140 -506h-155l-139 506h135z" />
    <glyph glyph-name="w" unicode="w" horiz-adv-x="704" 
d="M163 506l61 -303l66 303h129l65 -304l63 304h129l-122 -506h-139l-64 290l-62 -290h-139l-123 506h136z" />
    <glyph glyph-name="x" unicode="x" horiz-adv-x="494" 
d="M327 506h133l-147 -244l156 -262h-159l-71 151l-74 -151h-140l156 257l-148 249h163l64 -131z" />
    <glyph glyph-name="y" unicode="y" horiz-adv-x="467" 
d="M154 506l82 -360l84 360h132l-139 -511q-20 -75 -71.5 -120t-123.5 -45q-20 0 -50.5 7t-56.5 18l59 117q15 -7 34 -11.5t32 -4.5q29 0 39.5 12.5t16.5 31.5h-34l-140 506h136z" />
    <glyph glyph-name="z" unicode="z" horiz-adv-x="487" 
d="M63 506h388l-223 -383h208v-123h-420l218 382h-171v124z" />
    <glyph glyph-name="braceleft" unicode="{" horiz-adv-x="317" 
d="M239 668q-11 0 -18.5 -2.5t-12 -13.5t-6 -32.5t-1.5 -58.5v-121q0 -45 -13.5 -71.5t-38.5 -42.5q28 -18 40 -44t12 -68v-135q0 -39 1.5 -60.5t6 -32t11.5 -12.5t19 -2h54v-109h-62q-24 0 -48 7t-43.5 25t-32 49t-12.5 78v154q0 51 -10 71.5t-31 20.5h-45v120h45
q24 0 32.5 23.5t8.5 67.5v153q0 41 12 68.5t31 44.5t43 24t47 7h65v-108h-54z" />
    <glyph glyph-name="bar" unicode="|" horiz-adv-x="172" 
d="M33 773h102v-938h-102v938z" />
    <glyph glyph-name="braceright" unicode="}" horiz-adv-x="316" 
d="M23 668v108h65q23 0 46.5 -7t42.5 -24t31 -44.5t12 -68.5v-153q0 -44 9 -67.5t33 -23.5h45v-120h-45q-21 0 -31.5 -20.5t-10.5 -71.5v-154q0 -47 -12 -78t-31.5 -49t-43.5 -25t-48 -7h-62v109h54q12 0 19 2t11.5 12.5t6 32t1.5 60.5v135q0 41 13 67.5t39 44.5
q-26 16 -39 42.5t-13 71.5v121q0 37 -1.5 58.5t-6 32.5t-12 13.5t-18.5 2.5h-54z" />
    <glyph glyph-name="asciitilde" unicode="~" horiz-adv-x="515" 
d="M28 231q27 39 60 54.5t65 15.5q33 0 60 -8.5t51 -18.5t46.5 -18.5t46.5 -8.5q11 0 26 5.5t32.5 17.5t36 31.5t36.5 47.5v-144q-16 -20 -31.5 -33.5t-32 -21.5t-35 -11.5t-39.5 -3.5q-24 0 -49 8.5t-50.5 18.5t-49 18.5t-44.5 8.5q-12 0 -26 -4t-29.5 -15t-34 -31
t-39.5 -53v145z" />
    <glyph glyph-name="uni00A0" unicode="&#xa0;" horiz-adv-x="454" 
 />
    <glyph glyph-name="exclamdown" unicode="&#xa1;" horiz-adv-x="208" 
d="M24 -171l36 517h86l37 -517h-159zM104 413q-27 0 -46 19t-19 47t19 46.5t46 18.5q29 0 47.5 -18.5t18.5 -46.5t-18.5 -47t-47.5 -19z" />
    <glyph glyph-name="cent" unicode="&#xa2;" horiz-adv-x="437" 
d="M197 0v96q-44 9 -76 32t-52.5 56.5t-30 76t-9.5 91.5q0 50 10 93t30.5 76.5t52 55.5t75.5 30v96h104v-93q24 -3 50 -8.5t49 -13.5l-43 -125q-25 12 -56 19t-47 7q-54 0 -75.5 -37t-21.5 -100q0 -28 4.5 -53t16 -44t30 -30t46.5 -11q10 0 24.5 2.5t30.5 7.5t31.5 11.5
t28.5 14.5l48 -124q-28 -14 -59 -22t-57 -10v-94h-104z" />
    <glyph glyph-name="sterling" unicode="&#xa3;" horiz-adv-x="578" 
d="M103 129l77 292h-31v111h58q24 97 75 140t119 43q44 0 79.5 -19.5t68.5 -64.5l-81 -77q-11 19 -25.5 30.5t-41.5 11.5q-22 0 -39.5 -14.5t-23.5 -49.5h86v-111h-114l-78 -292h275v-129h-476v129h72z" />
    <glyph glyph-name="currency" unicode="&#xa4;" horiz-adv-x="332" 
d="M164 728l127 -276l-42 -15l-47 34v-146l55 -68v-211l-93 111l-92 -111v211l54 68v146l-46 -34l-43 15z" />
    <glyph glyph-name="yen" unicode="&#xa5;" horiz-adv-x="513" 
d="M192 327v47l-181 329h142l103 -209l104 209h141l-180 -329v-47h128v-88h-128v-57h128v-88h-128v-94h-129v94h-127v88h127v57h-127v88h127z" />
    <glyph glyph-name="brokenbar" unicode="&#xa6;" horiz-adv-x="156" 
d="M33 212h102v-377h-102v377zM135 401h-102v372h102v-372z" />
    <glyph glyph-name="section" unicode="&#xa7;" horiz-adv-x="429" 
d="M205 715q35 0 74 -7.5t68 -19.5v-130q-43 19 -77.5 29t-57.5 10q-11 0 -19.5 -5t-8.5 -14q0 -13 8.5 -22t21.5 -17q14 -9 44.5 -21.5t61 -33.5t53.5 -52t23 -76t-23 -75t-52 -39q22 -17 36.5 -44t14.5 -57q0 -33 -13.5 -61t-36.5 -48.5t-52.5 -32t-62.5 -11.5
q-50 0 -88.5 6.5t-70.5 17.5v142q20 -12 41.5 -21t42 -14.5t39 -8.5t31.5 -3q17 0 30 12t13 31q0 20 -20 32.5t-43 23.5q-72 32 -109 71.5t-37 90.5q0 46 21.5 74t55.5 41q-31 20 -43 49.5t-12 62.5q0 25 11 46.5t30.5 38t46.5 26t59 9.5zM185 414q-12 -5 -20.5 -14
t-8.5 -20q0 -20 22 -35.5t60 -29.5q14 2 24 10.5t10 22.5q0 12 -8.5 22.5t-21 19t-28 15t-29.5 9.5z" />
    <glyph glyph-name="dieresis" unicode="&#xa8;" horiz-adv-x="367" 
d="M272 708q27 0 46.5 -18.5t19.5 -46.5t-19.5 -47t-46.5 -19q-28 0 -46.5 19t-18.5 47t18.5 46.5t46.5 18.5zM96 708q28 0 47 -18.5t19 -46.5t-19 -47t-47 -19q-27 0 -46 19t-19 47t19 46.5t46 18.5z" />
    <glyph glyph-name="copyright" unicode="&#xa9;" horiz-adv-x="726" 
d="M367 718q150 0 234.5 -92t84.5 -273q0 -90 -22 -158.5t-63 -114.5t-100 -69t-134 -23t-135.5 22.5t-103.5 68.5t-66 114t-23 160q0 91 23.5 159.5t66.5 114.5t103.5 68.5t134.5 22.5zM367 629q-46 0 -89.5 -15.5t-78 -48.5t-55.5 -85.5t-21 -125.5q0 -74 20.5 -126
t55 -85t78 -48t90.5 -15q44 0 86 14t75 46.5t53 84.5t20 129q0 76 -20 128.5t-53 85t-75 47t-86 14.5zM377 557q10 0 24.5 -1.5t30.5 -4t31 -6t26 -6.5l-30 -90q-19 10 -44 15t-38 5q-24 0 -40.5 -8.5t-26.5 -24t-14 -36.5t-4 -46q0 -49 18.5 -82.5t66.5 -33.5q9 0 21 2
t25 5t25 7.5t20 9.5l35 -86q-12 -6 -28.5 -11t-34.5 -8t-34.5 -4.5t-28.5 -1.5q-48 0 -81.5 15t-54.5 42t-30 64t-9 82t9 82t30 64t54.5 42t81.5 15z" />
    <glyph glyph-name="ordfeminine" unicode="&#xaa;" horiz-adv-x="369" 
d="M185 711q142 0 142 -144v-249h-55l-10 32q-19 -21 -50.5 -30.5t-64.5 -9.5q-52 0 -80 29.5t-28 81.5q0 37 16.5 63t45 43.5t66 25.5t78.5 9q0 34 -15.5 49t-38.5 15q-17 0 -48 -9.5t-64 -28.5l-30 80q13 12 30.5 20.5t35.5 13.5t36 7t34 2zM247 498q-20 -2 -42.5 -6.5
t-41.5 -12t-31 -19.5t-12 -30q0 -24 10 -30t30 -6q30 0 53.5 8t33.5 24v72z" />
    <glyph glyph-name="guillemotleft" unicode="&#xab;" horiz-adv-x="489" 
d="M454 55l-222 157v51l222 158v-104l-117 -78l117 -80v-104zM241 55l-221 157v51l221 158v-104l-118 -78l118 -80v-104z" />
    <glyph glyph-name="logicalnot" unicode="&#xac;" horiz-adv-x="671" 
d="M274 373l16 -43l-36 -47h147l68 56h211l-111 -93l111 -93h-211l-68 55h-147l36 -46l-16 -43l-277 127z" />
    <glyph glyph-name="registered" unicode="&#xae;" horiz-adv-x="726" 
d="M325 331v-153h-76v357q31 4 58.5 6t53.5 2q66 0 92.5 -24.5t26.5 -70.5q0 -44 -20.5 -72.5t-51.5 -38.5l109 -159h-94zM350 476q-11 0 -16.5 -0.5t-10.5 -1.5v-78h43q19 0 30 10t11 35q0 13 -5 20t-13 10.5t-18.5 4t-20.5 0.5zM367 718q150 0 234.5 -92t84.5 -273
t-84.5 -273t-234.5 -92q-75 0 -135.5 22.5t-103.5 68.5t-66 114t-23 160q0 91 23.5 159.5t66 114.5t103 68.5t135.5 22.5zM367 629q-46 0 -89.5 -15.5t-78 -48.5t-55.5 -85.5t-21 -125.5q0 -74 20.5 -126t54.5 -85t78 -48t91 -15q45 0 87 14t74.5 46.5t52.5 84.5t20 129
q0 76 -20 128.5t-52.5 85t-74.5 47t-87 14.5z" />
    <glyph glyph-name="macron" unicode="&#xaf;" horiz-adv-x="438" 
d="M397 570h-357v102h357v-102z" />
    <glyph glyph-name="degree" unicode="&#xb0;" horiz-adv-x="318" 
d="M159 718q36 0 61 -10.5t40 -29.5t22 -44t7 -54t-7 -54t-23 -44t-40.5 -30t-59.5 -11q-36 0 -60.5 11t-40 29.5t-22.5 44t-7 54.5q0 66 30.5 102t99.5 36zM159 656q-32 0 -46 -19.5t-14 -54.5q0 -33 12.5 -53t47.5 -20q19 0 30.5 6t18 16t9 23t2.5 28q0 35 -14 54.5
t-46 19.5z" />
    <glyph glyph-name="plusminus" unicode="&#xb1;" horiz-adv-x="332" 
d="M164 54l-127 276l43 15l46 -35v147l-54 68v210l92 -110l93 110v-210l-55 -68v-147l47 35l42 -15z" />
    <glyph glyph-name="twosuperior" unicode="&#xb2;" horiz-adv-x="349" 
d="M177 717q22 0 43 -6.5t37.5 -20t26 -35.5t9.5 -52q0 -28 -10.5 -55.5t-28.5 -53.5t-42 -50.5t-52 -46.5h141v-81h-263v69q19 21 48.5 46t57 53.5t47.5 58.5t20 60q0 18 -8 25t-26 7q-24 0 -54 -10t-59 -28l-9 90q21 14 53 22t69 8z" />
    <glyph glyph-name="threesuperior" unicode="&#xb3;" horiz-adv-x="322" 
d="M153 717q61 0 89.5 -30.5t28.5 -76.5q0 -30 -11 -51.5t-28 -31.5q20 -9 36 -33t16 -53t-7 -53t-22.5 -41t-40.5 -27t-61 -10q-29 0 -54.5 4t-59.5 21v91q34 -21 64 -28.5t49 -7.5q26 0 38 11.5t12 39.5q0 45 -51 45h-57v69h55q18 0 30 8t12 32q0 26 -10.5 34t-36.5 8
q-20 0 -39.5 -8.5t-46.5 -25.5v87q44 27 95 27z" />
    <glyph glyph-name="acute" unicode="&#xb4;" horiz-adv-x="242" 
d="M241 653l-183 -107l-55 66l159 133z" />
    <glyph glyph-name="mu" unicode="&#xb5;" horiz-adv-x="511" 
d="M52 506h130v-306q0 -46 19.5 -64t52.5 -18q20 0 34.5 11t19.5 28v349h131v-353q0 -8 0.5 -14.5t5 -11t14 -8t26.5 -4.5v-115q-49 0 -75 9.5t-41 29.5q-14 -19 -42.5 -33t-67.5 -14q-51 0 -77 18v-169h-130v665z" />
    <glyph glyph-name="paragraph" unicode="&#xb6;" horiz-adv-x="467" 
d="M393 602v-602h-110v469h-47v-469h-110v471q-51 12 -76 43.5t-25 71.5q0 50 38.5 85t115.5 35h268z" />
    <glyph glyph-name="periodcentered" unicode="&#xb7;" horiz-adv-x="206" 
d="M103 325q30 0 52.5 -21.5t22.5 -53.5t-22.5 -53.5t-52.5 -21.5q-32 0 -54 21.5t-22 53.5t22 53.5t54 21.5z" />
    <glyph glyph-name="cedilla" unicode="&#xb8;" horiz-adv-x="183" 
d="M171 43q-3 -44 -10.5 -77.5t-20 -60.5t-29 -49t-37.5 -41l-67 44q12 25 20 42t14 35.5t10.5 43t10.5 63.5h109z" />
    <glyph glyph-name="onesuperior" unicode="&#xb9;" horiz-adv-x="311" 
d="M47 397h72v205l-48 -25l-38 74l114 59h55v-313h69v-81h-224v81z" />
    <glyph glyph-name="ordmasculine" unicode="&#xba;" horiz-adv-x="363" 
d="M181 310q-38 0 -64 14.5t-42 41t-23 64t-7 84.5q0 45 7 82.5t23 64t42 41.5t64 15q74 0 105 -53t31 -150q0 -46 -7 -83.5t-23.5 -64.5t-42.5 -41.5t-63 -14.5zM181 388q29 0 42.5 33.5t13.5 92.5q0 55 -15.5 89.5t-40.5 34.5q-29 0 -43 -33.5t-14 -90.5q0 -60 14 -93
t43 -33z" />
    <glyph glyph-name="guillemotright" unicode="&#xbb;" horiz-adv-x="496" 
d="M42 159l117 80l-117 78v104l221 -158v-51l-221 -157v104zM255 159l117 80l-117 78v104l221 -158v-51l-221 -157v104z" />
    <glyph glyph-name="onequarter" unicode="&#xbc;" horiz-adv-x="784" 
d="M146 0l434 718h116l-435 -718h-115zM466 126l179 268h55v-238h35v-82h-35v-74h-82v74h-152v52zM52 397h71v205l-47 -25l-38 74l115 59h53v-313h69v-81h-223v81zM621 154v82l-56 -82h56z" />
    <glyph glyph-name="onehalf" unicode="&#xbd;" horiz-adv-x="784" 
d="M623 401q22 0 43 -6.5t37 -20t26 -35t10 -52.5q0 -29 -12.5 -58t-32.5 -56t-45.5 -51t-51.5 -41h149v-81h-262v69q17 20 46.5 45t57.5 53t48.5 58.5t20.5 61.5q0 18 -8.5 25t-25.5 7q-24 0 -54 -10t-59 -28l-9 90q21 14 53 22t69 8zM52 397h71v205l-47 -25l-38 74l115 59
h53v-313h69v-81h-223v81zM128 0l434 718h116l-436 -718h-114z" />
    <glyph glyph-name="threequarters" unicode="&#xbe;" horiz-adv-x="784" 
d="M146 0l435 718h116l-436 -718h-115zM484 126l179 268h55v-238h35v-82h-35v-74h-82v74h-152v52zM639 154v82l-56 -82h56zM163 717q60 0 89 -30.5t29 -76.5q0 -30 -11.5 -51.5t-28.5 -31.5q20 -9 36 -33t16 -53q0 -57 -29 -94t-101 -37q-30 0 -55.5 4t-59.5 21v91
q34 -21 64 -28.5t49 -7.5q26 0 38.5 11.5t12.5 39.5q0 45 -52 45h-57v69h55q18 0 30 8t12 32q0 26 -10.5 34t-36.5 8q-20 0 -39.5 -8.5t-46.5 -25.5v87q44 27 96 27z" />
    <glyph glyph-name="questiondown" unicode="&#xbf;" horiz-adv-x="432" 
d="M244 -41q65 0 165 44v-144q-44 -15 -84.5 -22t-80.5 -7q-45 0 -84.5 14t-68.5 40t-45.5 63t-16.5 84q0 30 5 54.5t16 46.5t29 42.5t45 43.5q20 16 36.5 29.5t28.5 28.5t19 34.5t9 48.5h113q-1 -59 -12.5 -91t-31.5 -56q-16 -18 -37.5 -39t-41 -43.5t-33 -46t-13.5 -47.5
q0 -77 83 -77zM278 426q-27 0 -46.5 19t-19.5 46q0 28 19.5 47t46.5 19q28 0 46.5 -19t18.5 -47q0 -27 -18.5 -46t-46.5 -19z" />
    <glyph glyph-name="Agrave" unicode="&#xc0;" horiz-adv-x="684" 
d="M469 158h-257l-51 -158h-142l240 703h169l236 -703h-146zM426 290l-86 250l-86 -250h172zM300 942l161 -133l-57 -65l-181 106z" />
    <glyph glyph-name="Aacute" unicode="&#xc1;" horiz-adv-x="684" 
d="M469 158h-257l-51 -158h-142l240 703h169l236 -703h-146zM426 290l-86 250l-86 -250h172zM461 850l-183 -107l-55 66l159 133z" />
    <glyph glyph-name="Acircumflex" unicode="&#xc2;" horiz-adv-x="684" 
d="M469 158h-257l-51 -158h-142l240 703h169l236 -703h-146zM426 290l-86 250l-86 -250h172zM185 798l128 130h58l128 -130l-80 -68l-78 95l-79 -96z" />
    <glyph glyph-name="Atilde" unicode="&#xc3;" horiz-adv-x="684" 
d="M469 158h-257l-51 -158h-142l240 703h169l236 -703h-146zM426 290l-86 250l-86 -250h172zM195 800q5 55 31 79t55 24q20 0 35.5 -7t28 -15t22.5 -15t19 -7q12 0 21.5 12t11.5 38l69 -36q-11 -60 -38.5 -84t-58.5 -24q-18 0 -32 6.5t-25.5 14.5t-22 14.5t-20.5 6.5
q-24 0 -36 -46z" />
    <glyph glyph-name="Adieresis" unicode="&#xc4;" horiz-adv-x="684" 
d="M469 158h-257l-51 -158h-142l240 703h169l236 -703h-146zM426 290l-86 250l-86 -250h172zM429 905q27 0 46.5 -18.5t19.5 -46.5t-19.5 -47t-46.5 -19q-28 0 -46.5 19t-18.5 47t18.5 46.5t46.5 18.5zM253 905q28 0 47 -18.5t19 -46.5t-19 -47t-47 -19q-27 0 -46 19t-19 47
t19 46.5t46 18.5z" />
    <glyph glyph-name="Aring" unicode="&#xc5;" horiz-adv-x="684" 
d="M469 158h-257l-51 -158h-142l240 703h169l236 -703h-146zM426 290l-86 250l-86 -250h172zM454 814q0 -48 -27 -73.5t-85 -25.5t-85 25.5t-27 73.5t27 73.5t85 25.5t85 -25.5t27 -73.5zM306 814q0 -13 7.5 -19.5t26.5 -6.5t26 6.5t7 19.5t-7 18.5t-26 5.5t-26.5 -5.5
t-7.5 -18.5z" />
    <glyph glyph-name="AE" unicode="&#xc6;" horiz-adv-x="868" 
d="M805 574h-246v-137h223v-131h-223v-177h247v-129h-377v158h-187l-51 -158h-143l241 703h516v-129zM283 290h146v284h-54z" />
    <glyph glyph-name="Ccedilla" unicode="&#xc7;" horiz-adv-x="628" 
d="M373 715q21 0 49 -2.5t57 -7.5t57.5 -12.5t50.5 -17.5l-41 -129q-20 12 -44 20t-48 13t-45.5 7.5t-35.5 2.5q-37 0 -72 -11.5t-62.5 -39.5t-44.5 -73.5t-17 -113.5q0 -67 17 -112.5t45 -73.5t63 -40t71 -12q13 0 34.5 3.5t45.5 9.5t47.5 14.5t41.5 19.5l45 -131
q-22 -10 -50.5 -17.5t-57.5 -13t-57 -8t-49 -2.5q-74 0 -134.5 22.5t-103 68t-66 113.5t-23.5 159q0 90 23 158t65.5 114t103 69t135.5 23zM396 43q-3 -44 -10.5 -77.5t-20 -60.5t-29 -49t-37.5 -41l-67 44q12 25 20 42t14 35.5t10.5 43t10.5 63.5h109z" />
    <glyph glyph-name="Egrave" unicode="&#xc8;" horiz-adv-x="457" 
d="M425 703v-129h-246v-137h223v-131h-223v-177h247v-129h-377v703h376zM186 942l161 -133l-57 -65l-181 106z" />
    <glyph glyph-name="Eacute" unicode="&#xc9;" horiz-adv-x="457" 
d="M425 703v-129h-246v-137h223v-131h-223v-177h247v-129h-377v703h376zM347 850l-183 -107l-55 66l159 133z" />
    <glyph glyph-name="Ecircumflex" unicode="&#xca;" horiz-adv-x="457" 
d="M425 703v-129h-246v-137h223v-131h-223v-177h247v-129h-377v703h376zM71 798l128 130h58l128 -130l-80 -68l-78 95l-79 -96z" />
    <glyph glyph-name="Edieresis" unicode="&#xcb;" horiz-adv-x="457" 
d="M425 703v-129h-246v-137h223v-131h-223v-177h247v-129h-377v703h376zM316 905q27 0 46.5 -18.5t19.5 -46.5t-19.5 -47t-46.5 -19q-28 0 -46.5 19t-18.5 47t18.5 46.5t46.5 18.5zM140 905q28 0 47 -18.5t19 -46.5t-19 -47t-47 -19q-27 0 -46 19t-19 47t19 46.5t46 18.5z
" />
    <glyph glyph-name="Igrave" unicode="&#xcc;" horiz-adv-x="207" 
d="M168 703v-703h-132v703h132zM63 942l161 -133l-57 -65l-181 106z" />
    <glyph glyph-name="Iacute" unicode="&#xcd;" horiz-adv-x="207" 
d="M168 703v-703h-132v703h132zM224 850l-183 -107l-55 66l159 133z" />
    <glyph glyph-name="Icircumflex" unicode="&#xce;" horiz-adv-x="207" 
d="M168 703v-703h-132v703h132zM-52 798l128 130h58l128 -130l-80 -68l-78 95l-79 -96z" />
    <glyph glyph-name="Idieresis" unicode="&#xcf;" horiz-adv-x="207" 
d="M168 703v-703h-132v703h132zM192 905q27 0 46.5 -18.5t19.5 -46.5t-19.5 -47t-46.5 -19q-28 0 -46.5 19t-18.5 47t18.5 46.5t46.5 18.5zM16 905q28 0 47 -18.5t19 -46.5t-19 -47t-47 -19q-27 0 -46 19t-19 47t19 46.5t46 18.5z" />
    <glyph glyph-name="Eth" unicode="&#xd0;" horiz-adv-x="710" 
d="M340 709q73 0 132 -22t100 -67t63.5 -112t22.5 -157q0 -176 -85 -266.5t-235 -90.5q-19 0 -47 0.5t-60.5 1t-66.5 2t-65 4.5v283h-49v120h49v292q59 6 120 8.5t121 3.5zM357 285h-127v-159q24 -2 52 -2.5t58 -0.5q37 0 70.5 11.5t59 38t41 70t15.5 108.5q0 66 -16 110
t-43.5 70.5t-66 37.5t-83.5 11q-20 0 -43 -1.5t-44 -3.5v-170h127v-120z" />
    <glyph glyph-name="Ntilde" unicode="&#xd1;" horiz-adv-x="601" 
d="M47 703h115l270 -445v445h123v-703h-115l-270 440v-440h-123v703zM154 800q5 55 31 79t55 24q20 0 35.5 -7t28 -15t22.5 -15t19 -7q12 0 21.5 12t11.5 38l69 -36q-11 -60 -38.5 -84t-58.5 -24q-18 0 -32 6.5t-25.5 14.5t-22 14.5t-20.5 6.5q-24 0 -36 -46z" />
    <glyph glyph-name="Ograve" unicode="&#xd2;" horiz-adv-x="754" 
d="M380 715q73 0 132 -23t100.5 -68.5t64 -114t22.5 -158.5q0 -91 -22 -159t-63 -113.5t-100 -68t-134 -22.5q-74 0 -134.5 22.5t-103 68t-65.5 113.5t-23 159q0 92 23 160.5t65.5 113.5t102.5 67.5t135 22.5zM380 589q-37 0 -72.5 -12t-63.5 -40t-45.5 -73.5t-17.5 -112.5
t17 -112.5t45 -73.5t64 -40t73 -12t72 13t61 41.5t42 74t16 109.5q0 68 -16 114t-42.5 73.5t-61 39t-71.5 11.5zM335 942l161 -133l-57 -65l-181 106z" />
    <glyph glyph-name="Oacute" unicode="&#xd3;" horiz-adv-x="754" 
d="M380 715q73 0 132 -23t100.5 -68.5t64 -114t22.5 -158.5q0 -91 -22 -159t-63 -113.5t-100 -68t-134 -22.5q-74 0 -134.5 22.5t-103 68t-65.5 113.5t-23 159q0 92 23 160.5t65.5 113.5t102.5 67.5t135 22.5zM380 589q-37 0 -72.5 -12t-63.5 -40t-45.5 -73.5t-17.5 -112.5
t17 -112.5t45 -73.5t64 -40t73 -12t72 13t61 41.5t42 74t16 109.5q0 68 -16 114t-42.5 73.5t-61 39t-71.5 11.5zM496 850l-183 -107l-55 66l159 133z" />
    <glyph glyph-name="Ocircumflex" unicode="&#xd4;" horiz-adv-x="754" 
d="M380 715q73 0 132 -23t100.5 -68.5t64 -114t22.5 -158.5q0 -91 -22 -159t-63 -113.5t-100 -68t-134 -22.5q-74 0 -134.5 22.5t-103 68t-65.5 113.5t-23 159q0 92 23 160.5t65.5 113.5t102.5 67.5t135 22.5zM380 589q-37 0 -72.5 -12t-63.5 -40t-45.5 -73.5t-17.5 -112.5
t17 -112.5t45 -73.5t64 -40t73 -12t72 13t61 41.5t42 74t16 109.5q0 68 -16 114t-42.5 73.5t-61 39t-71.5 11.5zM220 798l128 130h58l128 -130l-80 -68l-78 95l-79 -96z" />
    <glyph glyph-name="Otilde" unicode="&#xd5;" horiz-adv-x="754" 
d="M380 715q73 0 132 -23t100.5 -68.5t64 -114t22.5 -158.5q0 -91 -22 -159t-63 -113.5t-100 -68t-134 -22.5q-74 0 -134.5 22.5t-103 68t-65.5 113.5t-23 159q0 92 23 160.5t65.5 113.5t102.5 67.5t135 22.5zM380 589q-37 0 -72.5 -12t-63.5 -40t-45.5 -73.5t-17.5 -112.5
t17 -112.5t45 -73.5t64 -40t73 -12t72 13t61 41.5t42 74t16 109.5q0 68 -16 114t-42.5 73.5t-61 39t-71.5 11.5zM230 800q5 55 31 79t55 24q20 0 35.5 -7t28 -15t22.5 -15t19 -7q12 0 21.5 12t11.5 38l69 -36q-11 -60 -38.5 -84t-58.5 -24q-18 0 -32 6.5t-25.5 14.5
t-22 14.5t-20.5 6.5q-24 0 -36 -46z" />
    <glyph glyph-name="Odieresis" unicode="&#xd6;" horiz-adv-x="754" 
d="M380 715q73 0 132 -23t100.5 -68.5t64 -114t22.5 -158.5q0 -91 -22 -159t-63 -113.5t-100 -68t-134 -22.5q-74 0 -134.5 22.5t-103 68t-65.5 113.5t-23 159q0 92 23 160.5t65.5 113.5t102.5 67.5t135 22.5zM380 589q-37 0 -72.5 -12t-63.5 -40t-45.5 -73.5t-17.5 -112.5
t17 -112.5t45 -73.5t64 -40t73 -12t72 13t61 41.5t42 74t16 109.5q0 68 -16 114t-42.5 73.5t-61 39t-71.5 11.5zM464 905q27 0 46.5 -18.5t19.5 -46.5t-19.5 -47t-46.5 -19q-28 0 -46.5 19t-18.5 47t18.5 46.5t46.5 18.5zM288 905q28 0 47 -18.5t19 -46.5t-19 -47t-47 -19
q-27 0 -46 19t-19 47t19 46.5t46 18.5z" />
    <glyph glyph-name="Oslash" unicode="&#xd8;" horiz-adv-x="750" 
d="M379 715q28 0 53.5 -2.5t49.5 -10.5l19 39h133l-47 -93q55 -46 82.5 -119t27.5 -178q0 -90 -22 -158t-63 -113.5t-100 -68.5t-133 -23q-63 0 -109 15l-18 -38h-134l46 91q-57 47 -84.5 118.5t-27.5 176.5q0 90 23 158.5t66 114t103 68.5t135 23zM379 586q-37 0 -72 -12
t-62.5 -40t-44 -72.5t-16.5 -110.5q0 -57 12 -96.5t33 -67.5l195 395q-11 3 -22.5 3.5t-22.5 0.5zM379 117q35 0 68.5 12t59.5 39.5t42 72t16 110.5q0 58 -11.5 97.5t-31.5 68.5l-194 -394q22 -6 51 -6z" />
    <glyph glyph-name="Ugrave" unicode="&#xd9;" horiz-adv-x="597" 
d="M183 703v-477q0 -59 29 -84t86 -25t86.5 25.5t29.5 83.5v477h131v-492q0 -54 -20 -96t-53.5 -70t-78.5 -42.5t-95 -14.5q-48 0 -92.5 14t-78.5 41.5t-54.5 69.5t-20.5 98v492h131zM256 942l161 -133l-57 -65l-181 106z" />
    <glyph glyph-name="Uacute" unicode="&#xda;" horiz-adv-x="597" 
d="M183 703v-477q0 -59 29 -84t86 -25t86.5 25.5t29.5 83.5v477h131v-492q0 -54 -20 -96t-53.5 -70t-78.5 -42.5t-95 -14.5q-48 0 -92.5 14t-78.5 41.5t-54.5 69.5t-20.5 98v492h131zM417 850l-183 -107l-55 66l159 133z" />
    <glyph glyph-name="Ucircumflex" unicode="&#xdb;" horiz-adv-x="597" 
d="M183 703v-477q0 -59 29 -84t86 -25t86.5 25.5t29.5 83.5v477h131v-492q0 -54 -20 -96t-53.5 -70t-78.5 -42.5t-95 -14.5q-48 0 -92.5 14t-78.5 41.5t-54.5 69.5t-20.5 98v492h131zM141 798l128 130h58l128 -130l-80 -68l-78 95l-79 -96z" />
    <glyph glyph-name="Udieresis" unicode="&#xdc;" horiz-adv-x="597" 
d="M183 703v-477q0 -59 29 -84t86 -25t86.5 25.5t29.5 83.5v477h131v-492q0 -54 -20 -96t-53.5 -70t-78.5 -42.5t-95 -14.5q-48 0 -92.5 14t-78.5 41.5t-54.5 69.5t-20.5 98v492h131zM386 905q27 0 46.5 -18.5t19.5 -46.5t-19.5 -47t-46.5 -19q-28 0 -46.5 19t-18.5 47
t18.5 46.5t46.5 18.5zM210 905q28 0 47 -18.5t19 -46.5t-19 -47t-47 -19q-27 0 -46 19t-19 47t19 46.5t46 18.5z" />
    <glyph glyph-name="Yacute" unicode="&#xdd;" horiz-adv-x="599" 
d="M300 422l139 281h153l-226 -422v-281h-131v280l-229 423h157zM418 850l-183 -107l-55 66l159 133z" />
    <glyph glyph-name="Thorn" unicode="&#xde;" horiz-adv-x="507" 
d="M183 703v-130h6q17 1 38 1.5t38 0.5q58 0 100 -14t69.5 -40t40.5 -62t13 -79q0 -55 -16.5 -98.5t-47 -74t-74.5 -46.5t-98 -16h-69v-145h-131v703h131zM270 446h-25t-19 -0.5t-19 -1t-24 -1.5v-169h82q46 0 68 25.5t22 68.5q0 42 -18.5 60t-66.5 18z" />
    <glyph glyph-name="germandbls" unicode="&#xdf;" horiz-adv-x="498" 
d="M234 740q102 0 151 -55.5t49 -147.5q0 -38 -17.5 -76.5t-46.5 -59.5q16 -12 32 -30.5t28.5 -41.5t20 -49t7.5 -53q0 -44 -11 -86.5t-35.5 -76t-64 -54.5t-95.5 -21q-10 0 -25 1t-24 2v131q11 -2 26 -4t23 -2q38 0 57 33.5t19 78.5q0 57 -26 80.5t-80 23.5h-20v114h18
q19 0 35 4t27 14.5t17.5 28t6.5 43.5q0 50 -16 67t-56 17q-32 0 -46 -19.5t-14 -64.5v-537h-125v541q0 54 14.5 92t39 62t58.5 34.5t73 10.5z" />
    <glyph glyph-name="agrave" unicode="&#xe0;" horiz-adv-x="462" 
d="M233 513q88 0 135 -47.5t47 -141.5v-324h-85q-9 12 -9 39q-25 -27 -57.5 -38.5t-76.5 -11.5q-33 0 -61 12t-48.5 33t-32 48.5t-11.5 57.5q0 48 22 82t58.5 56t85 33t101.5 14q-1 13 -7 25t-14 20.5t-18 13.5t-20 5q-11 0 -25.5 -1.5t-33 -7t-41.5 -15.5t-52 -27l-42 121
q25 17 50.5 27.5t50 16.5t46 8t38.5 2zM299 231q-23 -2 -49 -8.5t-47.5 -17.5t-35.5 -26t-14 -34q0 -26 12.5 -34t32.5 -8q35 0 61 10.5t40 27.5v90zM189 745l161 -133l-57 -65l-181 106z" />
    <glyph glyph-name="aacute" unicode="&#xe1;" horiz-adv-x="462" 
d="M233 513q88 0 135 -47.5t47 -141.5v-324h-85q-9 12 -9 39q-25 -27 -57.5 -38.5t-76.5 -11.5q-33 0 -61 12t-48.5 33t-32 48.5t-11.5 57.5q0 48 22 82t58.5 56t85 33t101.5 14q-1 13 -7 25t-14 20.5t-18 13.5t-20 5q-11 0 -25.5 -1.5t-33 -7t-41.5 -15.5t-52 -27l-42 121
q25 17 50.5 27.5t50 16.5t46 8t38.5 2zM299 231q-23 -2 -49 -8.5t-47.5 -17.5t-35.5 -26t-14 -34q0 -26 12.5 -34t32.5 -8q35 0 61 10.5t40 27.5v90zM350 653l-183 -107l-55 66l159 133z" />
    <glyph glyph-name="acircumflex" unicode="&#xe2;" horiz-adv-x="462" 
d="M233 513q88 0 135 -47.5t47 -141.5v-324h-85q-9 12 -9 39q-25 -27 -57.5 -38.5t-76.5 -11.5q-33 0 -61 12t-48.5 33t-32 48.5t-11.5 57.5q0 48 22 82t58.5 56t85 33t101.5 14q-1 13 -7 25t-14 20.5t-18 13.5t-20 5q-11 0 -25.5 -1.5t-33 -7t-41.5 -15.5t-52 -27l-42 121
q25 17 50.5 27.5t50 16.5t46 8t38.5 2zM299 231q-23 -2 -49 -8.5t-47.5 -17.5t-35.5 -26t-14 -34q0 -26 12.5 -34t32.5 -8q35 0 61 10.5t40 27.5v90zM74 601l128 130h58l128 -130l-80 -68l-78 95l-79 -96z" />
    <glyph glyph-name="atilde" unicode="&#xe3;" horiz-adv-x="462" 
d="M233 513q88 0 135 -47.5t47 -141.5v-324h-85q-9 12 -9 39q-25 -27 -57.5 -38.5t-76.5 -11.5q-33 0 -61 12t-48.5 33t-32 48.5t-11.5 57.5q0 48 22 82t58.5 56t85 33t101.5 14q-1 13 -7 25t-14 20.5t-18 13.5t-20 5q-11 0 -25.5 -1.5t-33 -7t-41.5 -15.5t-52 -27l-42 121
q25 17 50.5 27.5t50 16.5t46 8t38.5 2zM299 231q-23 -2 -49 -8.5t-47.5 -17.5t-35.5 -26t-14 -34q0 -26 12.5 -34t32.5 -8q35 0 61 10.5t40 27.5v90zM84 603q5 55 31 79t55 24q20 0 35.5 -7t28 -15t22.5 -15t19 -7q12 0 21.5 12t11.5 38l69 -36q-11 -60 -38.5 -84t-58.5 -24
q-18 0 -32 6.5t-25.5 14.5t-22 14.5t-20.5 6.5q-24 0 -36 -46z" />
    <glyph glyph-name="adieresis" unicode="&#xe4;" horiz-adv-x="462" 
d="M233 513q88 0 135 -47.5t47 -141.5v-324h-85q-9 12 -9 39q-25 -27 -57.5 -38.5t-76.5 -11.5q-33 0 -61 12t-48.5 33t-32 48.5t-11.5 57.5q0 48 22 82t58.5 56t85 33t101.5 14q-1 13 -7 25t-14 20.5t-18 13.5t-20 5q-11 0 -25.5 -1.5t-33 -7t-41.5 -15.5t-52 -27l-42 121
q25 17 50.5 27.5t50 16.5t46 8t38.5 2zM299 231q-23 -2 -49 -8.5t-47.5 -17.5t-35.5 -26t-14 -34q0 -26 12.5 -34t32.5 -8q35 0 61 10.5t40 27.5v90zM318 708q27 0 46.5 -18.5t19.5 -46.5t-19.5 -47t-46.5 -19q-28 0 -46.5 19t-18.5 47t18.5 46.5t46.5 18.5zM142 708
q28 0 47 -18.5t19 -46.5t-19 -47t-47 -19q-27 0 -46 19t-19 47t19 46.5t46 18.5z" />
    <glyph glyph-name="aring" unicode="&#xe5;" horiz-adv-x="462" 
d="M233 513q88 0 135 -47.5t47 -141.5v-324h-85q-9 12 -9 39q-25 -27 -57.5 -38.5t-76.5 -11.5q-33 0 -61 12t-48.5 33t-32 48.5t-11.5 57.5q0 48 22 82t58.5 56t85 33t101.5 14q-1 13 -7 25t-14 20.5t-18 13.5t-20 5q-11 0 -25.5 -1.5t-33 -7t-41.5 -15.5t-52 -27l-42 121
q25 17 50.5 27.5t50 16.5t46 8t38.5 2zM299 231q-23 -2 -49 -8.5t-47.5 -17.5t-35.5 -26t-14 -34q0 -26 12.5 -34t32.5 -8q35 0 61 10.5t40 27.5v90zM343 617q0 -48 -27 -73.5t-85 -25.5t-85 25.5t-27 73.5t27 73.5t85 25.5t85 -25.5t27 -73.5zM195 617q0 -13 7.5 -19.5
t26.5 -6.5t26 6.5t7 19.5t-7 18.5t-26 5.5t-26.5 -5.5t-7.5 -18.5z" />
    <glyph glyph-name="ae" unicode="&#xe6;" horiz-adv-x="777" 
d="M530 513q54 0 90.5 -21t58.5 -55t31.5 -76.5t9.5 -84.5v-52h-272q1 -19 6 -39t14 -36t24 -26.5t37 -10.5q15 0 34 4.5t39 13t40.5 20t38.5 25.5l39 -111q-27 -21 -49 -35.5t-43 -22.5t-44 -11.5t-52 -3.5q-21 0 -43 5.5t-42 16t-36.5 25t-26.5 32.5q-23 -35 -65.5 -58
t-116.5 -23q-36 0 -63.5 12t-45.5 33t-27 48.5t-9 57.5q0 48 21 80.5t57 53.5t83.5 31.5t100.5 13.5q-2 27 -22.5 48.5t-51.5 21.5q-28 0 -63.5 -12t-68.5 -37l-41 119q18 13 40 23.5t45 17t45.5 10t41.5 3.5q49 0 90 -16.5t57 -48.5q39 65 139 65zM319 225q-23 -2 -47 -8.5
t-44 -16.5t-33 -23.5t-13 -29.5q0 -38 52 -38q26 0 51 9.5t34 25.5v81zM522 395q-32 0 -49 -22t-24 -48h146q-3 13 -7.5 25.5t-12.5 22.5t-21 16t-32 6z" />
    <glyph glyph-name="ccedilla" unicode="&#xe7;" horiz-adv-x="447" 
d="M253 513q13 0 32.5 -1.5t40.5 -4.5t41 -7.5t36 -10.5l-43 -124q-12 6 -27.5 10.5t-30.5 8t-28 5t-21 1.5q-56 0 -77.5 -38.5t-21.5 -99.5q0 -29 4 -54.5t15.5 -44t30.5 -29.5t49 -11q10 0 25.5 2.5t32 7t33 11.5t28.5 15l47 -123q-17 -8 -39 -14.5t-45.5 -11t-45 -7
t-36.5 -2.5q-63 0 -106 19.5t-69.5 54.5t-38 83t-11.5 104q0 58 12 106t38.5 82.5t69.5 53.5t105 19zM305 43q-3 -44 -10.5 -77.5t-20 -60.5t-29 -49t-37.5 -41l-67 44q12 25 20 42t14 35.5t10.5 43t10.5 63.5h109z" />
    <glyph glyph-name="egrave" unicode="&#xe8;" horiz-adv-x="459" 
d="M229 513q57 0 95 -21.5t61 -55.5t32.5 -76.5t9.5 -83.5v-49h-274q3 -19 7.5 -39t14 -36.5t24 -27t36.5 -10.5q15 0 34 4.5t39.5 12.5t40.5 19t38 25l39 -111q-27 -21 -49 -35.5t-44 -22.5t-47 -11.5t-56 -3.5q-54 0 -92.5 22t-63 58.5t-35.5 83.5t-11 97q0 52 10 99
t33.5 83t62 57.5t95.5 21.5zM228 396q-33 0 -50 -23t-22 -51h144q-5 28 -21.5 51t-50.5 23zM187 745l161 -133l-57 -65l-181 106z" />
    <glyph glyph-name="eacute" unicode="&#xe9;" horiz-adv-x="459" 
d="M229 513q57 0 95 -21.5t61 -55.5t32.5 -76.5t9.5 -83.5v-49h-274q3 -19 7.5 -39t14 -36.5t24 -27t36.5 -10.5q15 0 34 4.5t39.5 12.5t40.5 19t38 25l39 -111q-27 -21 -49 -35.5t-44 -22.5t-47 -11.5t-56 -3.5q-54 0 -92.5 22t-63 58.5t-35.5 83.5t-11 97q0 52 10 99
t33.5 83t62 57.5t95.5 21.5zM228 396q-33 0 -50 -23t-22 -51h144q-5 28 -21.5 51t-50.5 23zM348 653l-183 -107l-55 66l159 133z" />
    <glyph glyph-name="ecircumflex" unicode="&#xea;" horiz-adv-x="459" 
d="M229 513q57 0 95 -21.5t61 -55.5t32.5 -76.5t9.5 -83.5v-49h-274q3 -19 7.5 -39t14 -36.5t24 -27t36.5 -10.5q15 0 34 4.5t39.5 12.5t40.5 19t38 25l39 -111q-27 -21 -49 -35.5t-44 -22.5t-47 -11.5t-56 -3.5q-54 0 -92.5 22t-63 58.5t-35.5 83.5t-11 97q0 52 10 99
t33.5 83t62 57.5t95.5 21.5zM228 396q-33 0 -50 -23t-22 -51h144q-5 28 -21.5 51t-50.5 23zM72 601l128 130h58l128 -130l-80 -68l-78 95l-79 -96z" />
    <glyph glyph-name="edieresis" unicode="&#xeb;" horiz-adv-x="459" 
d="M229 513q57 0 95 -21.5t61 -55.5t32.5 -76.5t9.5 -83.5v-49h-274q3 -19 7.5 -39t14 -36.5t24 -27t36.5 -10.5q15 0 34 4.5t39.5 12.5t40.5 19t38 25l39 -111q-27 -21 -49 -35.5t-44 -22.5t-47 -11.5t-56 -3.5q-54 0 -92.5 22t-63 58.5t-35.5 83.5t-11 97q0 52 10 99
t33.5 83t62 57.5t95.5 21.5zM228 396q-33 0 -50 -23t-22 -51h144q-5 28 -21.5 51t-50.5 23zM317 708q27 0 46.5 -18.5t19.5 -46.5t-19.5 -47t-46.5 -19q-28 0 -46.5 19t-18.5 47t18.5 46.5t46.5 18.5zM141 708q28 0 47 -18.5t19 -46.5t-19 -47t-47 -19q-27 0 -46 19t-19 47
t19 46.5t46 18.5z" />
    <glyph glyph-name="igrave" unicode="&#xec;" horiz-adv-x="202" 
d="M163 0h-127v506h127v-506zM60 745l161 -133l-57 -65l-181 106z" />
    <glyph glyph-name="iacute" unicode="&#xed;" horiz-adv-x="202" 
d="M163 0h-127v506h127v-506zM221 653l-183 -107l-55 66l159 133z" />
    <glyph glyph-name="icircumflex" unicode="&#xee;" horiz-adv-x="202" 
d="M163 0h-127v506h127v-506zM-55 601l128 130h58l128 -130l-80 -68l-78 95l-79 -96z" />
    <glyph glyph-name="idieresis" unicode="&#xef;" horiz-adv-x="202" 
d="M163 0h-127v506h127v-506zM190 708q27 0 46.5 -18.5t19.5 -46.5t-19.5 -47t-46.5 -19q-28 0 -46.5 19t-18.5 47t18.5 46.5t46.5 18.5zM14 708q28 0 47 -18.5t19 -46.5t-19 -47t-47 -19q-27 0 -46 19t-19 47t19 46.5t46 18.5z" />
    <glyph glyph-name="eth" unicode="&#xf0;" 
d="M261 513q34 0 71.5 -15t68.5 -57q-6 36 -21 63.5t-36 45.5t-45.5 27t-47.5 9q-30 0 -59.5 -6t-57.5 -14l6 132q20 6 48.5 11.5t57.5 5.5q143 0 211 -96.5t68 -300.5q0 -79 -17 -140.5t-48.5 -103.5t-76.5 -64t-101 -22t-101 18t-77 51.5t-49 81t-17 106.5q0 52 10 100
t35 85.5t68 60t110 22.5zM386 250q0 30 -9 55.5t-25.5 44t-39.5 29t-51 10.5q-53 0 -75.5 -39.5t-22.5 -108.5q0 -70 33.5 -100.5t81.5 -30.5q47 0 77.5 39t30.5 101z" />
    <glyph glyph-name="ntilde" unicode="&#xf1;" horiz-adv-x="502" 
d="M323 0v290q0 55 -16 79t-48 24q-33 0 -53 -12.5t-31 -32.5v-348h-125v506h114v-37q19 20 55.5 32t79.5 12q80 0 115 -55.5t35 -172.5v-285h-126zM104 603q5 55 31 79t55 24q20 0 35.5 -7t28 -15t22.5 -15t19 -7q12 0 21.5 12t11.5 38l69 -36q-11 -60 -38.5 -84t-58.5 -24
q-18 0 -32 6.5t-25.5 14.5t-22 14.5t-20.5 6.5q-24 0 -36 -46z" />
    <glyph glyph-name="ograve" unicode="&#xf2;" horiz-adv-x="512" 
d="M256 513q61 0 104 -19t70 -53t39 -82.5t12 -106.5q0 -56 -12 -104t-39 -83t-70 -54.5t-104 -19.5q-62 0 -105 19.5t-69.5 54.5t-38.5 82.5t-12 104.5q0 59 12 107t38.5 82.5t69.5 53t105 18.5zM256 391q-54 0 -76.5 -37t-22.5 -102q0 -30 5 -55.5t16 -44t30 -29t48 -10.5
t48 10.5t30.5 29t16.5 44t5 55.5q0 61 -22 100t-78 39zM214 745l161 -133l-57 -65l-181 106z" />
    <glyph glyph-name="oacute" unicode="&#xf3;" horiz-adv-x="512" 
d="M256 513q61 0 104 -19t70 -53t39 -82.5t12 -106.5q0 -56 -12 -104t-39 -83t-70 -54.5t-104 -19.5q-62 0 -105 19.5t-69.5 54.5t-38.5 82.5t-12 104.5q0 59 12 107t38.5 82.5t69.5 53t105 18.5zM256 391q-54 0 -76.5 -37t-22.5 -102q0 -30 5 -55.5t16 -44t30 -29t48 -10.5
t48 10.5t30.5 29t16.5 44t5 55.5q0 61 -22 100t-78 39zM375 653l-183 -107l-55 66l159 133z" />
    <glyph glyph-name="ocircumflex" unicode="&#xf4;" horiz-adv-x="512" 
d="M256 513q61 0 104 -19t70 -53t39 -82.5t12 -106.5q0 -56 -12 -104t-39 -83t-70 -54.5t-104 -19.5q-62 0 -105 19.5t-69.5 54.5t-38.5 82.5t-12 104.5q0 59 12 107t38.5 82.5t69.5 53t105 18.5zM256 391q-54 0 -76.5 -37t-22.5 -102q0 -30 5 -55.5t16 -44t30 -29t48 -10.5
t48 10.5t30.5 29t16.5 44t5 55.5q0 61 -22 100t-78 39zM99 601l128 130h58l128 -130l-80 -68l-78 95l-79 -96z" />
    <glyph glyph-name="otilde" unicode="&#xf5;" horiz-adv-x="512" 
d="M256 513q61 0 104 -19t70 -53t39 -82.5t12 -106.5q0 -56 -12 -104t-39 -83t-70 -54.5t-104 -19.5q-62 0 -105 19.5t-69.5 54.5t-38.5 82.5t-12 104.5q0 59 12 107t38.5 82.5t69.5 53t105 18.5zM256 391q-54 0 -76.5 -37t-22.5 -102q0 -30 5 -55.5t16 -44t30 -29t48 -10.5
t48 10.5t30.5 29t16.5 44t5 55.5q0 61 -22 100t-78 39zM109 603q5 55 31 79t55 24q20 0 35.5 -7t28 -15t22.5 -15t19 -7q12 0 21.5 12t11.5 38l69 -36q-11 -60 -38.5 -84t-58.5 -24q-18 0 -32 6.5t-25.5 14.5t-22 14.5t-20.5 6.5q-24 0 -36 -46z" />
    <glyph glyph-name="odieresis" unicode="&#xf6;" horiz-adv-x="512" 
d="M256 513q61 0 104 -19t70 -53t39 -82.5t12 -106.5q0 -56 -12 -104t-39 -83t-70 -54.5t-104 -19.5q-62 0 -105 19.5t-69.5 54.5t-38.5 82.5t-12 104.5q0 59 12 107t38.5 82.5t69.5 53t105 18.5zM256 391q-54 0 -76.5 -37t-22.5 -102q0 -30 5 -55.5t16 -44t30 -29t48 -10.5
t48 10.5t30.5 29t16.5 44t5 55.5q0 61 -22 100t-78 39zM343 708q27 0 46.5 -18.5t19.5 -46.5t-19.5 -47t-46.5 -19q-28 0 -46.5 19t-18.5 47t18.5 46.5t46.5 18.5zM167 708q28 0 47 -18.5t19 -46.5t-19 -47t-47 -19q-27 0 -46 19t-19 47t19 46.5t46 18.5z" />
    <glyph glyph-name="oslash" unicode="&#xf8;" horiz-adv-x="531" 
d="M256 513q37 0 72 -8l26 59h96l-44 -98q40 -35 57.5 -89.5t17.5 -124.5q0 -56 -12 -104t-39 -83t-70 -54.5t-104 -19.5q-17 0 -32.5 2t-29.5 4l-18 -41h-94l33 75q-45 34 -64.5 91t-19.5 130q0 59 12 107t38.5 82.5t69.5 53t105 18.5zM256 391q-54 0 -76.5 -37t-22.5 -102
q0 -27 4 -50.5t12 -41.5l103 230q-5 0 -10 0.5t-10 0.5zM356 252q0 43 -11 78l-98 -217h9q29 0 48 10.5t30.5 29t16.5 44t5 55.5z" />
    <glyph glyph-name="ugrave" unicode="&#xf9;" horiz-adv-x="483" 
d="M172 506v-289q0 -57 15 -80.5t45 -23.5q31 0 48.5 11.5t27.5 30.5v351h125v-506h-121v35q-15 -15 -42.5 -28.5t-71.5 -13.5q-70 0 -111 48t-41 155v310h126zM199 745l161 -133l-57 -65l-181 106z" />
    <glyph glyph-name="uacute" unicode="&#xfa;" horiz-adv-x="483" 
d="M172 506v-289q0 -57 15 -80.5t45 -23.5q31 0 48.5 11.5t27.5 30.5v351h125v-506h-121v35q-15 -15 -42.5 -28.5t-71.5 -13.5q-70 0 -111 48t-41 155v310h126zM360 653l-183 -107l-55 66l159 133z" />
    <glyph glyph-name="ucircumflex" unicode="&#xfb;" horiz-adv-x="483" 
d="M172 506v-289q0 -57 15 -80.5t45 -23.5q31 0 48.5 11.5t27.5 30.5v351h125v-506h-121v35q-15 -15 -42.5 -28.5t-71.5 -13.5q-70 0 -111 48t-41 155v310h126zM84 601l128 130h58l128 -130l-80 -68l-78 95l-79 -96z" />
    <glyph glyph-name="udieresis" unicode="&#xfc;" horiz-adv-x="483" 
d="M172 506v-289q0 -57 15 -80.5t45 -23.5q31 0 48.5 11.5t27.5 30.5v351h125v-506h-121v35q-15 -15 -42.5 -28.5t-71.5 -13.5q-70 0 -111 48t-41 155v310h126zM329 708q27 0 46.5 -18.5t19.5 -46.5t-19.5 -47t-46.5 -19q-28 0 -46.5 19t-18.5 47t18.5 46.5t46.5 18.5z
M153 708q28 0 47 -18.5t19 -46.5t-19 -47t-47 -19q-27 0 -46 19t-19 47t19 46.5t46 18.5z" />
    <glyph glyph-name="yacute" unicode="&#xfd;" horiz-adv-x="467" 
d="M154 506l82 -360l84 360h132l-139 -511q-20 -75 -71.5 -120t-123.5 -45q-20 0 -50.5 7t-56.5 18l59 117q15 -7 34 -11.5t32 -4.5q29 0 39.5 12.5t16.5 31.5h-34l-140 506h136zM352 653l-183 -107l-55 66l159 133z" />
    <glyph glyph-name="thorn" unicode="&#xfe;" horiz-adv-x="478" 
d="M50 732h125v-253q14 14 36.5 24t65.5 10t75.5 -20t54.5 -55.5t33.5 -83.5t11.5 -104q0 -59 -11.5 -107t-34 -82.5t-57.5 -53.5t-81 -19q-38 0 -59 7t-35 16v-181h-124v902zM233 107q31 0 50.5 11t30.5 30t15 45t4 57q0 28 -4.5 54.5t-14.5 47t-26.5 32.5t-41.5 12
q-56 0 -72 -48v-232q14 -5 28.5 -7t30.5 -2z" />
    <glyph glyph-name="ydieresis" unicode="&#xff;" horiz-adv-x="467" 
d="M154 506l82 -360l84 360h132l-139 -511q-20 -75 -71.5 -120t-123.5 -45q-20 0 -50.5 7t-56.5 18l59 117q15 -7 34 -11.5t32 -4.5q29 0 39.5 12.5t16.5 31.5h-34l-140 506h136zM321 708q27 0 46.5 -18.5t19.5 -46.5t-19.5 -47t-46.5 -19q-28 0 -46.5 19t-18.5 47
t18.5 46.5t46.5 18.5zM145 708q28 0 47 -18.5t19 -46.5t-19 -47t-47 -19q-27 0 -46 19t-19 47t19 46.5t46 18.5z" />
    <glyph glyph-name="dotlessi" unicode="&#x131;" horiz-adv-x="202" 
d="M163 0h-127v506h127v-506z" />
    <glyph glyph-name="Lslash" unicode="&#x141;" horiz-adv-x="524" 
d="M255 459l36 20l64 -112l-100 -58v-180h246v-129h-378v232l-38 -20l-63 112l101 59v320h132v-244z" />
    <glyph glyph-name="lslash" unicode="&#x142;" horiz-adv-x="299" 
d="M84 0v272l-29 -14l-63 112l92 52v310h131v-234l22 14l64 -112l-86 -52v-348h-131z" />
    <glyph glyph-name="OE" unicode="&#x152;" horiz-adv-x="1026" 
d="M380 715q68 0 120.5 -19.5t83.5 -50.5v58h377v-129h-246v-137h222v-131h-222v-177h247v-129h-378v59q-14 -15 -35 -27.5t-47.5 -22.5t-56.5 -15.5t-61 -5.5q-70 0 -128 23t-100 68.5t-65 113.5t-23 158q0 92 23 160.5t64.5 113.5t99 67.5t125.5 22.5zM395 586
q-36 0 -70.5 -12t-62 -39.5t-44 -72.5t-16.5 -111t16.5 -111t44 -72t62 -39t70.5 -12t69.5 12.5t59.5 40t42 72t16 109.5q0 66 -15.5 111t-41.5 72.5t-59.5 39.5t-70.5 12z" />
    <glyph glyph-name="oe" unicode="&#x153;" horiz-adv-x="849" 
d="M590 513q57 0 95 -21.5t61 -55.5t32.5 -76t9.5 -84v-61h-273q3 -20 7.5 -38t14 -32t24 -22.5t36.5 -8.5q15 0 33.5 4.5t39 12.5t40.5 19t38 25l39 -111q-27 -21 -49 -35.5t-44 -22.5t-46.5 -11.5t-56.5 -3.5q-45 0 -82 17t-60 46q-26 -29 -66.5 -46t-96.5 -17
q-61 0 -104 19.5t-70 54.5t-39 82.5t-12 104.5q0 58 12 106t38.5 82.5t69.5 53.5t105 19q54 0 96.5 -15.5t65.5 -42.5q25 27 59.5 42.5t82.5 15.5zM286 389q-54 0 -75.5 -38.5t-21.5 -98.5q0 -30 5 -55t16.5 -43.5t30 -29t45.5 -10.5q29 0 48 10t30 28.5t15.5 44t4.5 55.5
q0 61 -21.5 99t-76.5 38zM589 389q-30 0 -46 -14.5t-24 -40.5h140q-8 26 -21.5 40.5t-48.5 14.5z" />
    <glyph glyph-name="Scaron" unicode="&#x160;" horiz-adv-x="510" 
d="M252 715q50 0 99 -7.5t86 -21.5l-9 -139q-54 20 -100.5 29.5t-86.5 9.5q-26 0 -40.5 -13t-14.5 -39q0 -18 8.5 -32t22 -25.5t31.5 -22t38 -20.5q31 -17 64 -37t60 -48t44 -65.5t17 -87.5q0 -47 -19 -85t-51 -65.5t-73.5 -42.5t-85.5 -15q-69 0 -118 9.5t-84 18.5l10 151
q20 -12 44.5 -21t50.5 -15.5t51 -10t46 -3.5q38 0 65.5 24t27.5 62q0 21 -9 37t-24 28.5t-34.5 23.5t-40.5 22q-30 16 -61 34.5t-55.5 44t-40.5 60t-16 81.5q0 44 17 77.5t44.5 56.5t63 35t73.5 12zM284 742h-60l-127 131l85 68l72 -101l75 102l83 -69z" />
    <glyph glyph-name="scaron" unicode="&#x161;" horiz-adv-x="405" 
d="M338 355q-33 18 -68.5 29.5t-63.5 11.5q-41 0 -41 -23q0 -15 16.5 -26t41 -23t53 -27t51.5 -37q20 -20 32 -46.5t12 -63.5q0 -36 -15 -66t-39.5 -51t-56 -33t-64.5 -12q-49 0 -90.5 8.5t-67.5 19.5l6 133q19 -10 40.5 -17.5t41.5 -13t38.5 -8t31.5 -2.5q21 0 34.5 13.5
t13.5 31.5q0 16 -16 27.5t-39.5 23t-50.5 25.5t-49 35q-20 20 -32.5 45.5t-12.5 63.5q0 69 44.5 104.5t117.5 35.5q29 0 66.5 -7t65.5 -19v-132zM232 545h-60l-127 131l85 68l72 -101l75 102l83 -69z" />
    <glyph glyph-name="Ydieresis" unicode="&#x178;" horiz-adv-x="599" 
d="M300 422l139 281h153l-226 -422v-281h-131v280l-229 423h157zM387 905q27 0 46.5 -18.5t19.5 -46.5t-19.5 -47t-46.5 -19q-28 0 -46.5 19t-18.5 47t18.5 46.5t46.5 18.5zM211 905q28 0 47 -18.5t19 -46.5t-19 -47t-47 -19q-27 0 -46 19t-19 47t19 46.5t46 18.5z" />
    <glyph glyph-name="Zcaron" unicode="&#x17d;" horiz-adv-x="544" 
d="M80 703h436l-283 -570h260v-133h-465l280 568h-228v135zM301 742h-60l-127 131l85 68l72 -101l75 102l83 -69z" />
    <glyph glyph-name="zcaron" unicode="&#x17e;" horiz-adv-x="487" 
d="M63 506h388l-223 -383h208v-123h-420l218 382h-171v124zM273 545h-60l-127 131l85 68l72 -101l75 102l83 -69z" />
    <glyph glyph-name="circumflex" unicode="&#x2c6;" horiz-adv-x="340" 
d="M13 601l128 130h58l128 -130l-80 -68l-78 95l-79 -96z" />
    <glyph glyph-name="caron" unicode="&#x2c7;" horiz-adv-x="340" 
d="M199 545h-60l-127 131l85 68l72 -101l75 102l83 -69z" />
    <glyph glyph-name="ring" unicode="&#x2da;" horiz-adv-x="280" 
d="M252 617q0 -48 -27 -73.5t-85 -25.5t-85 25.5t-27 73.5t27 73.5t85 25.5t85 -25.5t27 -73.5zM104 617q0 -13 7.5 -19.5t26.5 -6.5t26 6.5t7 19.5t-7 18.5t-26 5.5t-26.5 -5.5t-7.5 -18.5z" />
    <glyph glyph-name="tilde" unicode="&#x2dc;" horiz-adv-x="345" 
d="M28 603q5 55 31 79t55 24q20 0 35.5 -7t28 -15t22.5 -15t19 -7q12 0 21.5 12t11.5 38l69 -36q-11 -60 -38.5 -84t-58.5 -24q-18 0 -32 6.5t-25.5 14.5t-22 14.5t-20.5 6.5q-24 0 -36 -46z" />
    <glyph glyph-name="endash" unicode="&#x2013;" horiz-adv-x="863" 
d="M811 219h-759v110h759v-110z" />
    <glyph glyph-name="emdash" unicode="&#x2014;" horiz-adv-x="555" 
d="M510 219h-466v110h466v-110z" />
    <glyph glyph-name="quoteleft" unicode="&#x2018;" horiz-adv-x="171" 
d="M81 522q-28 0 -47 18.5t-19 46.5q0 21 4 41t14.5 40.5t27.5 41.5t44 45l43 -43q-12 -20 -20 -38.5t-8 -29.5q0 -4 4 -9.5t9 -12.5t9 -17t4 -23q0 -23 -17 -41.5t-48 -18.5z" />
    <glyph glyph-name="quoteright" unicode="&#x2019;" horiz-adv-x="171" 
d="M90 749q27 0 46 -18.5t19 -46.5q0 -21 -4 -41t-14.5 -40t-27.5 -41t-44 -45l-42 42q12 21 20 39t8 29q0 4 -4 9.5t-9 12.5t-9 17t-4 23q0 23 17 41.5t48 18.5z" />
    <glyph glyph-name="quotesinglbase" unicode="&#x201a;" horiz-adv-x="171" 
d="M90 119q27 0 46 -19t19 -46q0 -21 -4 -41t-14.5 -40.5t-27.5 -41.5t-44 -45l-42 42q12 21 20 39t8 29q0 4 -4 10l-9 13.5t-9 17t-4 21.5q0 23 17 42t48 19z" />
    <glyph glyph-name="quotedblleft" unicode="&#x201c;" horiz-adv-x="368" 
d="M95 522q-27 0 -46 18.5t-19 46.5q0 21 4 41t14 40.5t27.5 41.5t43.5 45l43 -43q-13 -20 -21 -38.5t-8 -29.5q0 -4 4.5 -9t9.5 -12.5t9.5 -17.5t4.5 -23q0 -23 -18 -41.5t-48 -18.5zM268 522q-27 0 -46 18.5t-19 46.5q0 21 4 41t14 40.5t27.5 41.5t43.5 45l43 -43
q-12 -20 -20 -38.5t-8 -29.5q0 -4 4 -9t9 -12.5t9 -17.5t4 -23q0 -23 -17 -41.5t-48 -18.5z" />
    <glyph glyph-name="quotedblright" unicode="&#x201d;" horiz-adv-x="368" 
d="M272 749q28 0 47 -18.5t19 -46.5q0 -21 -4 -41t-14 -40t-27.5 -41t-43.5 -45l-43 42q12 21 20 39t8 29q0 4 -4 9t-9.5 12.5t-9.5 17t-4 23.5q0 23 17.5 41.5t47.5 18.5zM100 749q26 0 45 -18.5t19 -46.5q0 -21 -4 -41t-14 -40t-27 -41t-44 -45l-42 42q12 21 20 39t8 29
q0 4 -4 9t-9.5 12.5t-9.5 17t-4 23.5q0 23 17 41.5t49 18.5z" />
    <glyph glyph-name="quotedblbase" unicode="&#x201e;" horiz-adv-x="368" 
d="M272 119q28 0 47 -19t19 -46q0 -21 -4 -41t-14 -40.5t-27.5 -41.5t-43.5 -45l-43 42q12 21 20 39t8 29q0 4 -4 9.5t-9.5 13t-9.5 17t-4 22.5q0 23 17.5 42t47.5 19zM100 119q26 0 45 -19t19 -46q0 -21 -4 -41t-14 -40.5t-27 -41.5t-44 -45l-42 42q12 21 20 39t8 29
q0 4 -4 9.5t-9.5 13t-9.5 17t-4 22.5q0 23 17 42t49 19z" />
    <glyph glyph-name="dagger" unicode="&#x2020;" horiz-adv-x="454" 
d="M284 498v-498h-109v498h-163v109h163v99h109v-99h157v-109h-157z" />
    <glyph glyph-name="daggerdbl" unicode="&#x2021;" horiz-adv-x="469" 
d="M179 208v290h-164v109h164v99h110v-99h157v-109h-157v-290h163v-109h-163v-99h-110v99h-157v109h157z" />
    <glyph glyph-name="bullet" unicode="&#x2022;" horiz-adv-x="287" 
d="M145 370q25 0 47.5 -9t39 -25.5t26 -38.5t9.5 -48t-9.5 -48.5t-26 -39t-39 -25.5t-47.5 -9q-26 0 -48 9t-38.5 25.5t-25.5 39t-9 48.5t9 48t25.5 38.5t38.5 25.5t48 9z" />
    <glyph glyph-name="ellipsis" unicode="&#x2026;" horiz-adv-x="1030" 
d="M121 119q27 0 46 -19t19 -46q0 -29 -19 -47.5t-46 -18.5q-28 0 -47 18.5t-19 47.5q0 27 19 46t47 19zM909 119q27 0 46 -19t19 -46q0 -29 -19 -47.5t-46 -18.5t-46 18.5t-19 47.5q0 27 19 46t46 19zM515 119q27 0 46 -19t19 -46q0 -29 -19 -47.5t-46 -18.5
q-28 0 -47 18.5t-19 47.5q0 27 19 46t47 19z" />
    <glyph glyph-name="perthousand" unicode="&#x2030;" horiz-adv-x="1002" 
d="M61 0l461 718h118l-463 -718h-116zM500 315q40 0 67.5 -12.5t45 -34t25.5 -51.5t8 -65t-7.5 -64.5t-24.5 -52t-45 -35t-69 -12.5t-69.5 12.5t-45.5 34.5t-24.5 52t-7.5 65q0 36 7.5 65.5t24.5 51.5t45.5 34t69.5 12zM196 718q39 0 67 -12t45.5 -33.5t25.5 -51.5t8 -66
q0 -35 -8 -65t-25.5 -52.5t-45.5 -35t-67 -12.5q-40 0 -68 12.5t-45.5 34.5t-25.5 52.5t-8 65.5q0 36 8 65.5t25 51.5t45 34t69 12zM830 315q40 0 67.5 -12t45 -33.5t25.5 -51.5t8 -66q0 -34 -8 -63.5t-25.5 -52t-45 -35.5t-67.5 -13q-41 0 -69 12.5t-45 34.5t-25 52t-8 65
q0 73 33.5 118t113.5 45zM196 629q-36 0 -46 -22t-10 -52q0 -35 10.5 -55.5t45.5 -20.5t46 21.5t11 54.5q0 32 -11.5 53t-45.5 21zM830 227q-17 0 -28 -6t-17.5 -16.5t-9 -24t-2.5 -28.5q0 -34 12 -55.5t45 -21.5q35 0 46 22.5t11 54.5t-11.5 53.5t-45.5 21.5zM500 227
q-31 0 -44 -20t-13 -55q0 -36 13.5 -56.5t43.5 -20.5q35 0 46 22.5t11 54.5q0 35 -12.5 55t-44.5 20z" />
    <glyph glyph-name="guilsinglleft" unicode="&#x2039;" horiz-adv-x="250" 
d="M224 64l-221 157v51l221 158v-104l-118 -79l118 -80v-103z" />
    <glyph glyph-name="guilsinglright" unicode="&#x203a;" horiz-adv-x="261" 
d="M36 159l118 80l-118 78v104l222 -158v-51l-222 -157v104z" />
    <glyph glyph-name="fraction" unicode="&#x2044;" horiz-adv-x="547" 
d="M427 718h121l-428 -718h-121z" />
    <glyph glyph-name="Euro" unicode="&#x20ac;" horiz-adv-x="685" 
d="M61 495h61q17 55 48 96.5t72.5 69t92.5 41t109 13.5q49 0 101 -6t86 -14l-39 -127q-22 4 -44 7.5t-41.5 6t-36 3.5t-26.5 1q-48 0 -95.5 -21t-78.5 -70h299l-36 -114h-299q-2 -8 -2 -15.5v-15.5v-16t2 -16h281l-36 -114h-212q27 -46 70 -66.5t91 -20.5q14 0 35 2.5
t44.5 8t47 13.5t42.5 19l45 -131q-22 -10 -50.5 -17.5t-57.5 -13t-57 -8t-49 -2.5q-116 0 -196 54.5t-112 161.5h-89l30 114h40q-3 15 -3 32q0 14 3 31h-70z" />
    <glyph glyph-name="trademark" unicode="&#x2122;" horiz-adv-x="784" 
d="M560 562l102 144h75v-455h-104v252l-73 -103l-72 102v-251h-105v455h75zM232 251h-109v346h-83v109h274v-109h-82v-346z" />
    <glyph glyph-name="minus" unicode="&#x2212;" horiz-adv-x="671" 
d="M673 246l-277 -127l-16 43l36 46h-147l-68 -55h-211l111 93l-111 93h211l68 -56h147l-36 47l16 43z" />
    <glyph glyph-name="zerooldstyle" unicode="&#xf730;" horiz-adv-x="539" 
d="M275 513q59 0 100.5 -18t68 -50.5t39 -78t12.5 -100.5q0 -59 -12.5 -109.5t-40.5 -87.5t-72 -57.5t-107 -20.5q-60 0 -102 18.5t-68 51.5t-37.5 77.5t-11.5 97.5q0 61 12 112t39 87.5t71 57t109 20.5zM274 389q-56 0 -78.5 -40.5t-22.5 -106.5q0 -28 4 -51.5t14.5 -40.5
t28.5 -26.5t45 -9.5q29 0 48.5 11t31.5 31t17.5 47t5.5 59q0 59 -21 93t-73 34z" />
    <glyph glyph-name="oneoldstyle" unicode="&#xf731;" horiz-adv-x="340" 
d="M161 0v337l-96 -51l-58 116l195 104h89v-506h-130z" />
    <glyph glyph-name="twooldstyle" unicode="&#xf732;" horiz-adv-x="501" 
d="M246 513q39 0 72.5 -11t58 -31t38.5 -50t14 -67q0 -39 -10 -68.5t-31 -55t-52 -50t-73 -51.5h203v-129h-423v117q37 27 81.5 55.5t83 58.5t64.5 60t26 59q0 14 -13.5 24.5t-38.5 10.5q-43 0 -90 -17.5t-95 -45.5l-11 141q35 20 83 35t113 15z" />
    <glyph glyph-name="threeoldstyle" unicode="&#xf733;" horiz-adv-x="516" 
d="M244 513q108 0 157 -49t49 -134q0 -51 -15.5 -81.5t-43.5 -53.5q15 -10 30 -24.5t26.5 -34.5t19 -45t7.5 -55q0 -95 -54 -150.5t-176 -55.5q-50 0 -96 8.5t-106 37.5l5 139q58 -32 108.5 -44.5t88.5 -12.5q51 0 75.5 19.5t24.5 73.5q0 42 -27.5 60t-78.5 18h-91v114h88
q40 0 63.5 13.5t23.5 55.5q0 24 -5.5 38.5t-16 22t-26 10t-35.5 2.5q-39 0 -76.5 -12.5t-82.5 -44.5v142q33 20 75.5 31.5t88.5 11.5z" />
    <glyph glyph-name="fouroldstyle" unicode="&#xf734;" horiz-adv-x="524" 
d="M33 84l307 422h88v-376h61v-130h-61v-159h-130v159h-265v84zM298 130v120l-89 -120h89z" />
    <glyph glyph-name="fiveoldstyle" unicode="&#xf735;" horiz-adv-x="515" 
d="M437 377h-245l-4 -99q13 4 39 6.5t55 2.5q103 0 149 -50.5t46 -167.5q0 -113 -55.5 -176t-175.5 -63q-51 0 -100 8.5t-108 37.5l15 144q55 -30 105 -45t88 -15q51 0 75.5 22.5t24.5 86.5q0 29 -5 47.5t-17.5 29.5t-34.5 15t-55 4q-25 0 -46.5 -2t-42 -5.5t-42 -8
t-45.5 -10.5l18 367h361v-129z" />
    <glyph glyph-name="sixoldstyle" unicode="&#xf736;" horiz-adv-x="569" 
d="M321 469q45 0 83 -17t65.5 -48t43 -73.5t15.5 -93.5q0 -56 -19 -101.5t-53 -78.5t-80.5 -51t-100.5 -18q-107 0 -169 76.5t-62 219.5q0 105 20 189t59.5 143.5t97 91.5t132.5 32q29 0 58 -5t49 -11v-133q-27 8 -56 14.5t-59 6.5q-32 0 -60 -16t-50 -42t-36.5 -60
t-20.5 -70q24 20 57.5 32.5t85.5 12.5zM183 229q0 -25 8.5 -46.5t23 -37t34 -24t41.5 -8.5q21 0 40.5 9t34 24.5t23 37t8.5 45.5t-8.5 45.5t-23 37t-33.5 25t-41 9.5t-41.5 -9t-34 -25t-23 -37t-8.5 -46z" />
    <glyph glyph-name="sevenoldstyle" unicode="&#xf737;" horiz-adv-x="469" 
d="M34 506h431l-260 -665h-141l217 536h-247v129z" />
    <glyph glyph-name="eightoldstyle" unicode="&#xf738;" horiz-adv-x="533" 
d="M265 740q43 0 79 -13t62.5 -36.5t41.5 -57t15 -75.5q0 -62 -24 -105.5t-62 -65.5q23 -14 44.5 -32.5t38 -42t26 -51.5t9.5 -60q0 -48 -19 -87t-51 -67t-73.5 -43.5t-86.5 -15.5t-86.5 15.5t-73.5 43.5t-51 67t-19 87q0 31 9.5 60t25.5 53.5t36.5 44.5t41.5 34
q-34 29 -56.5 67.5t-22.5 97.5q0 42 14.5 75.5t41 57t62.5 36.5t78 13zM170 208q0 -42 26.5 -65t64.5 -23q41 0 67 24.5t26 63.5q0 18 -8 35t-21 32t-30 27.5t-34 21.5q-18 -10 -34 -22.5t-29 -27t-20.5 -31.5t-7.5 -35zM270 627q-19 0 -33.5 -7.5t-24 -19.5t-14 -26.5
t-4.5 -28.5q0 -15 6.5 -30t17 -28.5t24 -24.5t26.5 -18q33 19 53.5 44.5t20.5 56.5q0 13 -5 27.5t-14 26.5t-22.5 20t-30.5 8z" />
    <glyph glyph-name="nineoldstyle" unicode="&#xf739;" horiz-adv-x="567" 
d="M263 45q-47 0 -86.5 18t-68.5 50t-45.5 75t-16.5 93q0 55 18.5 98.5t52 73t80 45t102.5 15.5q109 0 170 -72.5t61 -213.5q0 -208 -77 -302.5t-225 -94.5q-29 0 -61.5 5t-53.5 12l14 130q26 -7 51.5 -12.5t56.5 -5.5q57 0 95.5 31.5t54.5 86.5q-19 -12 -51.5 -22
t-70.5 -10zM387 280q0 22 -8 41t-22 33.5t-32 22.5t-39 8q-44 0 -72.5 -30t-28.5 -75q0 -23 8 -42t22 -33t32 -21.5t39 -7.5q44 0 72.5 30t28.5 74z" />
    </font>
</defs>
</svg>
